<svg width="140" height="141" viewBox="0 0 140 141" fill="none" xmlns="http://www.w3.org/2000/svg">
<rect x="0.5" y="0.779175" width="139" height="139" rx="69.5" fill="white" fill-opacity="0.2"/>
<rect x="0.5" y="0.779175" width="139" height="139" rx="69.5" stroke="url(#paint0_linear_2540_703)"/>
<g filter="url(#filter0_d_2540_703)">
<path d="M87.2077 43.9912C78.7567 43.9912 71.9067 50.8421 71.9067 59.2921C71.9067 67.7421 78.7577 74.5931 87.2077 74.5931C95.6577 74.5931 102.509 67.7421 102.509 59.2921C102.509 50.8421 95.6577 43.9912 87.2077 43.9912ZM87.2651 67.9458C82.5178 67.9458 78.6688 64.0977 78.6688 59.3495C78.6688 54.6014 82.5169 50.7532 87.2651 50.7532C92.0132 50.7532 95.8614 54.6014 95.8614 59.3495C95.8614 64.0977 92.0132 67.9458 87.2651 67.9458Z" fill="url(#paint1_linear_2540_703)"/>
<path d="M87.2651 62.9023C85.1567 62.9023 83.4641 61.1236 83.6058 58.9847C83.7262 57.1671 85.2012 55.694 87.0197 55.5755C87.2447 55.5606 87.466 55.5662 87.6808 55.5912C88.4836 55.6819 89.2586 55.2708 89.6132 54.5449C90.1863 53.3718 89.4262 51.9838 88.1289 51.8347C87.8428 51.8023 87.5549 51.7856 87.266 51.7856C83.116 51.7856 79.7012 55.2005 79.7012 59.3505C79.7012 63.5005 83.116 66.9153 87.266 66.9153C87.6206 66.9153 87.9734 66.8903 88.3225 66.8412C89.6012 66.6606 90.3067 65.2542 89.715 64.1051L89.6039 63.8884C89.2428 63.1875 88.4845 62.7847 87.7012 62.8773C87.5586 62.894 87.4132 62.9032 87.266 62.9032L87.2651 62.9023Z" fill="url(#paint2_linear_2540_703)"/>
<path d="M104.342 54.0773L104.571 63.0172L108.629 58.5468L104.342 54.0773Z" fill="url(#paint3_linear_2540_703)"/>
<path d="M58.8046 46.032C58.9481 45.9273 59.05 45.856 59.1491 45.781C59.2204 45.7273 59.2796 45.6486 59.3583 45.6162C59.6685 45.4903 59.8991 45.2671 60.1259 45.0338C60.1861 44.9718 60.2685 44.9301 60.3444 44.8847C60.4685 44.8107 60.5944 44.7394 60.7222 44.6699C60.8157 44.619 60.9083 44.5523 61.0102 44.531C61.2083 44.4884 61.3954 44.4542 61.5472 44.2903C61.6092 44.2236 61.7472 44.2088 61.8528 44.2023C62.8602 44.1394 63.8676 44.1394 64.875 44.2023C64.9648 44.2079 65.0907 44.2097 65.1343 44.2653C65.3167 44.4959 65.5741 44.4894 65.8231 44.5431C66.1343 44.6097 66.3333 44.8736 66.5815 45.0486C66.8009 45.2033 67.0111 45.3709 67.225 45.5329C67.5454 45.5246 67.5991 45.9079 67.8694 45.9727C67.8843 45.9764 67.9028 45.9968 67.9055 46.0116C67.9676 46.2959 68.15 46.4977 68.3685 46.669C68.5861 46.8394 68.6241 47.1533 68.8805 47.2931C68.9204 47.3144 68.9463 47.382 68.9574 47.4329C69.0056 47.6477 69.0417 47.857 69.2324 48.0134C69.3028 48.0709 69.3065 48.2134 69.3333 48.319C69.3685 48.4597 69.3889 48.5931 69.5167 48.7033C69.6028 48.7773 69.6463 48.9199 69.675 49.0394C69.7102 49.1875 69.7481 49.3088 69.8972 49.3912C69.9602 49.4264 70 49.5412 70.0102 49.6246C70.0435 49.8986 70.0722 50.1579 70.2907 50.3755C70.375 50.4588 70.3593 50.6505 70.3741 50.794C70.3954 51.0144 70.4176 51.2209 70.5954 51.394C70.6741 51.4699 70.6935 51.6246 70.7056 51.7468C70.7278 51.9718 70.7704 52.1866 70.9333 52.3496C71.0537 52.4699 71.0324 52.619 71.0528 52.7597C71.0741 52.9079 71.1 53.0394 71.2426 53.1347C71.3055 53.1764 71.3407 53.2829 71.3565 53.3662C71.3806 53.4912 71.3759 53.6218 71.387 53.7496C71.3981 53.8773 71.375 54.0264 71.4343 54.1283C71.6593 54.5134 71.7157 54.9468 71.8343 55.3625C71.8426 55.3921 71.8843 55.4116 71.9407 55.4634C71.9963 55.4283 72.0704 55.3903 72.1333 55.3384C72.2305 55.2597 72.3213 55.1718 72.4491 55.057C72.463 54.9347 72.4861 54.7727 72.4981 54.6097C72.5139 54.4116 72.487 54.1986 72.7231 54.0959C72.7518 54.0838 72.7713 54.0421 72.7861 54.0097C72.8694 53.8283 72.7694 53.5847 72.9417 53.4421C73.1185 53.2959 73.1204 53.0959 73.187 52.9107C73.2463 52.7459 73.3926 52.6125 73.4509 52.4468C73.5111 52.2783 73.5102 52.0875 73.5407 51.9079C73.5463 51.8746 73.5704 51.8227 73.5935 51.8181C73.8509 51.7616 73.8148 51.4514 74.0093 51.3412C74.0537 51.3153 74.1102 51.2662 74.1148 51.2227C74.1491 50.9079 74.4083 50.731 74.562 50.4931C74.6981 50.282 74.8852 50.1042 74.9241 49.8375C74.9306 49.7903 74.9796 49.7125 75.012 49.7116C75.2787 49.7014 75.2194 49.3079 75.4917 49.3144C75.5657 49.1209 75.7352 49.019 75.8778 48.8857C76.0296 48.7421 76.1269 48.5384 76.2852 48.4042C76.5574 48.1727 76.7972 47.9051 77.0731 47.6847C77.2685 47.5283 77.3537 47.256 77.6194 47.1847C77.6667 46.9894 77.8185 46.9459 77.9898 46.9227C78.1185 46.9051 78.2315 46.8653 78.3028 46.7329C78.3954 46.5616 78.6833 46.5866 78.7167 46.3403C78.7194 46.319 78.7759 46.2903 78.8074 46.2903C79.1704 46.2903 79.35 45.9579 79.6417 45.8301C79.7241 45.6236 79.9093 45.606 80.0935 45.581C80.1833 45.569 80.2796 45.557 80.3583 45.5162C80.6815 45.3523 80.9972 45.1746 81.3194 45.0097C81.4315 44.9523 81.5519 44.9116 81.6732 44.8755C81.8306 44.8292 81.988 44.8042 82.0889 44.6421C82.1269 44.581 82.2426 44.5533 82.3278 44.5394C82.4722 44.5171 82.6213 44.5283 82.7657 44.506C82.8898 44.4875 83.0361 44.4764 83.1269 44.4042C83.3611 44.2171 83.625 44.1921 83.9028 44.1884C84.0861 44.1857 84.2695 44.1783 84.4519 44.169C84.6176 44.1607 84.7759 44.1449 84.913 44.0255C85.0732 43.8857 85.2759 43.8653 85.4815 43.8653C86.6908 43.8653 87.9009 43.8653 89.1102 43.8662C89.2741 43.8662 89.4509 43.8551 89.5741 43.9894C89.7139 44.1412 89.8935 44.1551 90.0759 44.1681C90.2407 44.1792 90.4056 44.1847 90.5704 44.1875C90.8472 44.1931 91.1019 44.232 91.3509 44.3949C91.5056 44.4959 91.7333 44.5023 91.9315 44.5153C92.1926 44.5329 92.4417 44.5505 92.6333 44.7634C92.6787 44.8134 92.7565 44.8459 92.825 44.8588C93.0565 44.9051 93.2991 44.9162 93.4343 45.1634C93.4537 45.1986 93.5324 45.2042 93.5852 45.2181C93.6741 45.2412 93.7898 45.232 93.8482 45.2857C94.0704 45.4903 94.3241 45.6023 94.6222 45.6218C94.775 45.856 95.0287 45.9079 95.2713 45.9801C95.363 46.2431 95.7139 46.2181 95.8185 46.4718C95.8352 46.5125 95.9009 46.5542 95.9472 46.5579C96.2037 46.5792 96.3843 46.7162 96.5306 46.9134C96.7111 46.9153 96.7593 47.056 96.8389 47.182C96.913 47.2986 97.0658 47.3264 97.1713 47.4403C97.4509 47.7421 97.7676 48.0134 98.1056 48.2542C98.1935 48.3171 98.2982 48.356 98.4185 48.4181C98.5269 48.7912 98.8 49.0634 99.0704 49.3542C99.2315 49.5273 99.4759 49.6477 99.5407 49.907C99.7898 50.0301 99.8685 50.2588 99.9306 50.5079C99.9695 50.6653 100.178 50.6949 100.222 50.8884C100.258 51.0477 100.436 51.1699 100.51 51.3273C100.588 51.4912 100.607 51.6801 100.803 51.769C100.84 51.7857 100.855 51.8616 100.869 51.9134C100.927 52.1051 100.976 52.2949 101.131 52.4459C101.201 52.5134 101.21 52.6459 101.24 52.7505C101.279 52.8903 101.294 53.032 101.425 53.1357C101.488 53.1857 101.52 53.2903 101.539 53.3764C101.601 53.6625 101.648 53.9468 101.869 54.1736C101.934 54.2394 101.915 54.382 101.946 54.4857C101.977 54.5875 101.995 54.7329 102.069 54.7755C102.248 54.8801 102.255 55.032 102.261 55.1977C102.269 55.3996 102.273 55.6005 102.286 55.8023C102.302 56.0579 102.312 56.3088 102.497 56.5246C102.569 56.6097 102.586 56.7625 102.587 56.8847C102.594 58.369 102.595 59.8533 102.589 61.3375C102.589 61.5162 102.569 61.7162 102.488 61.8699C102.319 62.1931 102.292 62.5338 102.276 62.882C102.268 63.0653 102.267 63.2486 102.253 63.431C102.248 63.5014 102.242 63.6051 102.197 63.6347C101.946 63.8014 101.944 64.0588 101.911 64.3125C101.9 64.4014 101.883 64.5209 101.824 64.5671C101.614 64.731 101.59 64.9681 101.531 65.1949C101.481 65.3912 101.267 65.4959 101.257 65.7199C101.249 65.9264 101.162 66.107 101.002 66.2477C100.977 66.2699 100.962 66.3125 100.958 66.3468C100.922 66.7292 100.565 66.9533 100.487 67.3134C100.284 67.444 100.225 67.6875 100.065 67.8514C100.015 67.9023 99.9593 67.9542 99.9269 68.0162C99.838 68.1838 99.888 68.4171 99.6445 68.5144C99.4787 68.581 99.5083 68.8607 99.2898 68.9005C99.1259 69.1838 98.9065 69.4153 98.6482 69.6134C98.6074 69.644 98.5806 69.7005 98.562 69.7496C98.4195 70.1236 98.113 70.3421 97.8093 70.5709C97.313 70.9449 96.8176 71.3227 96.4019 71.7912C96.3454 71.8542 96.2472 71.8792 96.1713 71.9264C95.8824 72.1051 95.5574 72.2273 95.3176 72.4838C95.2704 72.5338 95.1982 72.5662 95.1324 72.5921C95.0648 72.6181 94.9907 72.6366 94.9185 72.6403C94.7093 72.6523 94.7417 72.9607 94.5028 72.957C94.3232 72.9551 94.1426 73.007 94.0361 73.194C94.0083 73.2431 93.9158 73.2708 93.8491 73.2801C93.6296 73.3097 93.4111 73.3236 93.2704 73.5366C93.2463 73.5736 93.1741 73.5875 93.1222 73.5949C92.8306 73.6347 92.5435 73.6764 92.3213 73.906C92.2787 73.9496 92.1843 73.9514 92.113 73.9579C91.8917 73.9773 91.6898 74.006 91.5269 74.1986C91.4602 74.2773 91.2917 74.2875 91.1667 74.2959C90.7093 74.3264 90.2574 74.3616 89.8259 74.5533C89.6657 74.6246 89.4667 74.6153 89.2843 74.6264C87.9102 74.7079 86.5361 74.7033 85.162 74.6283C84.9065 74.6144 84.6657 74.5681 84.4204 74.4644C84.175 74.3607 83.888 74.3477 83.6167 74.3162C83.3815 74.2894 83.1574 74.2921 82.9593 74.1051C82.8537 74.006 82.6556 73.9986 82.4954 73.9681C82.3185 73.9347 82.1213 73.9597 82.0176 73.7616C82.0102 73.7468 81.9917 73.7283 81.9769 73.7273C81.4454 73.6838 81.0454 73.2153 80.4546 73.282C80.3407 73.1023 80.2037 72.9338 79.9519 72.9459C79.8148 72.9523 79.7398 72.8727 79.6519 72.7579C79.5278 72.5949 79.3546 72.444 79.1694 72.357C78.9417 72.2505 78.6861 72.207 78.5315 71.9801C78.1398 71.8857 77.8954 71.5866 77.6185 71.3301C77.4657 71.1884 77.3454 71.2023 77.2111 71.3792C77.0491 71.5931 76.8481 71.7884 76.8639 72.0921C76.8667 72.1421 76.8454 72.2181 76.8093 72.2403C76.5954 72.3718 76.6009 72.607 76.5111 72.7986C76.4176 72.9977 76.237 73.1616 76.0759 73.3227C75.7981 73.6005 75.5046 73.8607 75.2213 74.1329C74.8676 74.4727 74.6417 74.594 74.1991 74.681C74.0741 74.7051 73.9231 74.7088 73.8343 74.7829C73.5537 75.0134 73.2306 75.0209 72.8991 75.0199C72.587 75.0199 72.2759 75.0171 71.9639 75.0199C71.6667 75.0227 71.3861 74.994 71.1296 74.8079C71.0194 74.7283 70.8574 74.7125 70.7157 74.6866C70.4657 74.6403 70.2009 74.6403 70.0287 74.4033C70.0102 74.3773 69.9657 74.3681 69.9324 74.3551C69.7509 74.2857 69.5241 74.3079 69.4157 74.0903C69.3315 73.9208 69.0509 73.9764 69.0148 73.7477C68.5685 73.4264 68.1935 73.0264 67.8009 72.6459C67.662 72.5116 67.6157 72.2857 67.3954 72.2329C67.3315 72.0384 67.2185 71.8801 67.0565 71.756C67.0444 71.7468 67.0389 71.7236 67.0361 71.706C66.9787 71.3264 66.688 71.0986 66.4685 70.8236C66.4148 70.756 66.3806 70.669 66.3555 70.5857C66.3296 70.4986 66.3555 70.3829 66.3074 70.3181C66.0435 69.9644 66.037 69.4931 65.7593 69.1486C65.7481 69.1347 65.7259 69.1209 65.7259 69.106C65.7037 68.6347 65.3741 68.2746 65.2685 67.8329C65.2435 67.7292 65.225 67.5829 65.1528 67.5384C64.938 67.407 64.9417 67.2116 64.9389 67.0116C64.9361 66.7329 64.8935 66.4783 64.7185 66.2384C64.6296 66.1181 64.6231 65.9292 64.6028 65.769C64.5685 65.4986 64.5833 65.2227 64.3417 65.0153C64.2768 64.9597 64.2805 64.8125 64.2685 64.706C64.2389 64.4403 64.2824 64.1551 63.9972 63.9755C63.9435 63.9412 63.9435 63.8088 63.9333 63.7199C63.9111 63.5199 63.8981 63.3199 63.8833 63.1384C63.7444 62.9857 63.6268 62.8468 63.4991 62.719C63.4213 62.6412 63.2593 62.681 63.2204 62.782C63.1944 62.8496 63.1704 62.9208 63.162 62.9921C63.1296 63.2662 63.0713 63.5181 62.912 63.7625C62.812 63.9153 62.8278 64.1486 62.8074 64.3468C62.7805 64.6171 62.8231 64.907 62.5491 65.0903C62.5361 65.0996 62.5305 65.1218 62.5231 65.1384C62.4148 65.369 62.5444 65.6588 62.3352 65.8653C62.15 66.0477 62.1454 66.2912 62.1222 66.5292C62.1139 66.6171 62.1055 66.7347 62.0491 66.7829C61.8268 66.9727 61.8083 67.2246 61.7944 67.482C61.7805 67.7403 61.7778 67.9996 61.55 68.1829C61.5361 68.194 61.5204 68.2134 61.5213 68.2283C61.5426 68.6912 61.1537 69.007 61.0907 69.4412C61.0676 69.5996 61.0278 69.7597 60.8796 69.8736C60.8167 69.9218 60.7935 70.0273 60.7639 70.1107C60.7046 70.2801 60.6917 70.4681 60.5194 70.5857C60.4694 70.6199 60.4491 70.7107 60.4315 70.7792C60.3824 70.9699 60.3843 71.1829 60.163 71.2884C60.1231 71.307 60.0981 71.3764 60.0852 71.4273C60.0417 71.6079 59.9944 71.7792 59.8296 71.8977C59.6861 72.0005 59.7222 72.2607 59.4944 72.2996C59.3944 72.5486 59.1278 72.6801 59.0454 72.9505C59.0111 73.0625 58.9157 73.2005 58.8148 73.2384C58.3278 73.4227 58.0426 73.8523 57.6518 74.1514C57.6241 74.1727 57.6092 74.2292 57.5833 74.232C57.1454 74.2857 56.8333 74.6672 56.3731 74.6792C56.1028 74.6866 55.8315 74.7273 55.5991 74.9144C55.5092 74.9866 55.3583 75.0042 55.2342 75.0079C54.7583 75.019 54.2805 75.0236 53.8046 75.0079C53.6463 75.0023 53.4583 74.969 53.3398 74.8773C53.1481 74.7301 52.9407 74.7097 52.7231 74.6894C52.4842 74.6671 52.2704 74.606 52.0583 74.469C51.8028 74.3042 51.5111 74.1986 51.2574 74.0171C51.1111 73.9125 50.9592 73.8246 50.8287 73.6921C50.7213 73.5829 50.5213 73.5699 50.487 73.3746C50.2407 73.3412 50.2018 73.057 50.0092 72.9736C49.8148 72.8894 49.8509 72.5894 49.6018 72.5755C49.4565 72.3764 49.2935 72.1866 49.1713 71.9746C49.0463 71.757 48.8657 71.5829 48.787 71.3199C48.7018 71.0357 48.4889 70.7894 48.3324 70.5255C48.2694 70.419 48.1898 70.3162 48.1518 70.2014C48.1009 70.0458 48.0713 69.9042 47.9213 69.7875C47.8278 69.7144 47.8074 69.5283 47.7824 69.3884C47.7472 69.1894 47.7352 68.9912 47.5583 68.8486C47.4315 68.7459 47.45 68.5838 47.437 68.4394C47.4148 68.2023 47.4166 67.9588 47.1963 67.7949C47.1694 67.7746 47.1379 67.7347 47.1398 67.7051C47.1676 67.2107 46.6944 66.8653 46.7435 66.3634C46.75 66.3005 46.712 66.1968 46.6629 66.1709C46.4435 66.0533 46.4472 65.8542 46.437 65.6523C46.4204 65.2894 46.4417 64.9246 46.1704 64.6144C46.0898 64.5218 46.112 64.3347 46.0981 64.1894C46.0722 63.9144 46.0259 63.6551 45.8704 63.4097C45.7796 63.2662 45.7759 63.0653 45.7389 62.8894C45.6852 62.6347 45.5148 62.5681 45.2981 62.7144C45.1194 62.8338 45.0092 62.9931 44.9954 63.2107C44.9861 63.357 44.9824 63.5033 44.9713 63.6496C44.9592 63.8134 44.9546 63.9727 44.7833 64.0792C44.6416 64.1671 44.6648 64.3394 44.6546 64.481C44.6324 64.7746 44.5879 65.0486 44.4324 65.3162C44.3296 65.4931 44.3305 65.7357 44.3046 65.9514C44.2787 66.1653 44.3204 66.3829 44.0861 66.5357C44.0046 66.5884 43.9889 66.7653 43.9713 66.8894C43.9398 67.1088 43.9241 67.3273 43.7333 67.482C43.7065 67.5033 43.675 67.5412 43.675 67.5718C43.6666 68.081 43.2481 68.4616 43.2398 68.9709C43.2389 69.0412 43.2185 69.1255 43.1759 69.1773C42.9954 69.3996 42.8972 69.657 42.887 69.9338C42.8787 70.1607 42.6176 70.1764 42.5842 70.369C42.5565 70.5292 42.5268 70.682 42.4213 70.8255C42.2018 71.1227 41.9657 71.406 41.8611 71.7875C41.8065 71.9875 41.5805 72.1403 41.4315 72.3144C41.3741 72.381 41.3046 72.4403 41.2602 72.5153C40.9463 73.0403 40.6129 73.3421 40.1185 73.6996C39.9046 73.8542 39.6305 73.9477 39.4861 74.1949C39.4768 74.2107 39.4676 74.2347 39.4555 74.2375C39.0463 74.3209 38.7481 74.6801 38.3074 74.6894C38.0694 74.6949 37.8444 74.7421 37.6333 74.8847C37.5055 74.9708 37.3241 75.006 37.1657 75.0107C36.6713 75.0255 36.1759 75.0255 35.6815 75.0097C35.5231 75.0042 35.3352 74.9699 35.2157 74.8783C35.0426 74.744 34.8574 74.6857 34.6592 74.6801C34.2796 74.669 34.0028 74.4255 33.7574 74.2134C33.425 73.9264 33.074 73.6384 32.8065 73.2903C32.6315 73.0625 32.3222 72.8986 32.3296 72.5496C32.3342 72.3459 32.0935 72.331 32.0463 72.1699C32 72.0134 32.0055 71.7958 31.9018 71.7116C31.6953 71.5431 31.687 71.3468 31.687 71.1255C31.687 70.4107 31.687 69.6959 31.6889 68.981C31.6889 68.7792 31.6815 68.5736 31.8926 68.4505C31.9213 68.4338 31.9453 68.3949 31.9537 68.3616C31.9907 68.2199 31.999 68.0662 32.0611 67.9384C32.1129 67.831 32.287 67.7597 32.2981 67.6597C32.3324 67.3597 32.5676 67.194 32.712 66.9755C32.8537 66.7625 33.0694 66.5949 33.2676 66.4199C33.4639 66.2459 33.7352 66.0653 33.7472 65.7357C33.749 65.6829 33.7666 65.6181 33.8018 65.582C34.0407 65.3394 34.05 65.0255 34.0926 64.7181C34.1065 64.6181 34.1472 64.4847 34.2213 64.4366C34.3916 64.3273 34.3944 64.1644 34.4166 64.006C34.4509 63.757 34.4305 63.507 34.6703 63.3153C34.7565 63.2459 34.7463 63.044 34.762 62.9005C34.7833 62.6986 34.8018 62.5107 34.9602 62.3486C35.0389 62.2681 35.0639 62.1199 35.0796 61.9977C35.1083 61.7801 35.1065 61.5588 35.1287 61.3403C35.1379 61.2514 35.1463 61.1292 35.2037 61.0857C35.4453 60.9014 35.4315 60.6412 35.4416 60.3884C35.4491 60.1829 35.4972 60.0153 35.6426 59.8459C35.7472 59.7236 35.75 59.507 35.7778 59.3301C35.8055 59.1514 35.8055 58.9829 35.95 58.8273C36.0491 58.7199 36.0768 58.5292 36.0944 58.3709C36.1305 58.044 36.1416 57.7264 36.3583 57.4375C36.4546 57.3088 36.4407 57.0866 36.4509 56.9051C36.4703 56.5755 36.4926 56.2634 36.6991 55.9709C36.8046 55.8209 36.8018 55.5884 36.8278 55.3903C36.8565 55.1718 36.8759 54.969 37.0555 54.7949C37.1435 54.7097 37.137 54.5264 37.1722 54.3866C37.212 54.2283 37.2065 54.0329 37.3009 53.9208C37.4713 53.7181 37.5018 53.4986 37.5129 53.2588C37.5241 53.0199 37.5481 52.7903 37.7065 52.5875C37.8472 52.407 37.8491 52.1764 37.8565 51.956C37.8639 51.7496 37.8898 51.557 38.0741 51.4181C38.1259 51.3792 38.1648 51.2986 38.1731 51.232C38.2028 50.981 38.1926 50.7246 38.4537 50.5616C38.5092 50.5273 38.5129 50.394 38.5231 50.3042C38.5407 50.1542 38.5824 50.031 38.7 49.919C38.8389 49.7875 38.8472 49.5921 38.862 49.4079C38.8768 49.2264 38.8741 49.0357 39.0759 48.9357C39.1046 48.9218 39.1296 48.882 39.1379 48.8496C39.2037 48.5838 39.2713 48.3209 39.5055 48.1431C39.5935 47.7597 39.8898 47.4968 40.0694 47.1662C40.1046 47.1023 40.162 47.0431 40.1741 46.9755C40.2296 46.669 40.5657 46.5662 40.6602 46.2921C40.9241 46.2496 40.9194 45.8986 41.1741 45.844C41.2342 45.5884 41.5629 45.5801 41.6389 45.3384C41.912 45.231 42.0648 44.9199 42.3611 44.8746C42.5815 44.8412 42.5991 44.594 42.7833 44.5523C42.9435 44.5162 43.1518 44.5468 43.2602 44.4551C43.6389 44.1338 44.0842 44.1838 44.5166 44.1773C45.2305 44.1662 45.9454 44.181 46.6602 44.1931C46.8046 44.1959 46.9694 44.1968 47.087 44.2644C47.3435 44.4125 47.5926 44.5496 47.8991 44.5486C47.9454 44.5486 48.0157 44.5866 48.0333 44.6255C48.1565 44.9014 48.4528 44.9662 48.6667 45.1144C48.887 45.2671 49.1157 45.419 49.3037 45.5996C49.4898 45.7783 49.7407 45.9107 49.8379 46.1755C50.1074 46.207 50.1028 46.5523 50.3444 46.6181C50.3768 46.6264 50.4222 46.656 50.4268 46.682C50.4741 46.9459 50.6796 47.1209 50.7879 47.3421C50.9213 47.6171 51.2092 47.794 51.25 48.1171C51.5259 48.3514 51.5222 48.7505 51.7731 49.0023C51.8176 49.0468 51.8167 49.1394 51.8333 49.2097C51.8778 49.4033 51.8907 49.6014 52.062 49.7514C52.1342 49.8144 52.162 49.9458 52.1805 50.0523C52.2222 50.2894 52.2704 50.5125 52.45 50.6977C52.5167 50.7662 52.525 50.8977 52.5444 51.0042C52.5741 51.1662 52.5833 51.3209 52.7472 51.432C52.8204 51.481 52.8592 51.6171 52.8667 51.7181C52.8907 52.0468 52.9092 52.3625 53.1287 52.6468C53.2176 52.7616 53.2083 52.9597 53.2241 53.1209C53.2491 53.3755 53.2537 53.6208 53.4555 53.831C53.5398 53.919 53.5333 54.1023 53.55 54.2449C53.575 54.4653 53.5898 54.6783 53.7861 54.8366C53.8444 54.8829 53.8639 54.9958 53.8741 55.081C53.9102 55.3829 53.8657 55.694 54.1657 55.9236C54.2713 56.0042 54.2667 56.2255 54.3204 56.3801C54.3296 56.4079 54.3768 56.4431 54.4037 56.4403C54.4537 56.4357 54.5352 56.419 54.5463 56.3866C54.7111 55.931 55.0435 55.5329 55.0055 55.007C54.9861 54.7301 55.0278 54.4708 55.2157 54.2338C55.3074 54.1181 55.3046 53.9273 55.3454 53.7699C55.3722 53.6653 55.3639 53.5171 55.4315 53.4653C55.6528 53.2949 55.662 53.0653 55.6805 52.8264C55.6954 52.6468 55.6991 52.4773 55.8731 52.3384C55.9657 52.2644 55.9842 52.0764 56.0009 51.9347C56.0315 51.681 56.037 51.4366 56.2241 51.219C56.3185 51.1088 56.3204 50.9125 56.3463 50.7514C56.375 50.5727 56.3509 50.3764 56.5555 50.2764C56.5704 50.269 56.587 50.2496 56.5889 50.2338C56.6296 49.857 56.9342 49.5986 57.0324 49.2514C57.0972 49.0218 57.1333 48.7894 57.3268 48.6181C57.3741 48.5764 57.3805 48.4847 57.3954 48.4134C57.4342 48.2366 57.4407 48.0468 57.6324 47.9431C57.6731 47.9209 57.7111 47.856 57.7157 47.807C57.7407 47.556 57.8454 47.3551 58.0555 47.2125C58.0685 46.9218 58.4481 46.9005 58.4842 46.6264C58.7546 46.5171 58.738 46.2523 58.8028 46.0329L58.8046 46.032ZM58.7342 70.8727C58.8167 70.8468 58.9037 70.8283 58.9787 70.7875C58.9963 70.7783 58.9926 70.6783 58.9667 70.6514C58.9417 70.6255 58.8407 70.6227 58.8315 70.6403C58.7926 70.7162 58.7741 70.8033 58.7491 70.8866C58.6694 70.9153 58.5861 70.9366 58.5139 70.9783C58.4944 70.9903 58.4944 71.0829 58.5176 71.107C58.5398 71.1301 58.6333 71.1283 58.6454 71.107C58.687 71.0347 58.7065 70.9505 58.7342 70.8709V70.8727ZM87.3417 73.6884C88.1537 73.6662 88.9602 73.6486 89.7657 73.6181C89.925 73.6116 90.1167 73.5986 90.2333 73.5097C90.4269 73.3625 90.6296 73.3366 90.85 73.3255C90.9602 73.3199 91.0695 73.306 91.1796 73.3079C91.4204 73.3116 91.5676 73.1227 91.7602 73.0412C92.0213 72.9301 92.3408 72.9588 92.5408 72.7005C92.7389 72.6653 92.938 72.6366 93.1343 72.5931C93.3324 72.5496 93.4195 72.3116 93.65 72.3014C93.8158 72.294 93.9426 72.1912 94.0741 72.0773C94.262 71.9125 94.4806 71.757 94.713 71.6755C95.0491 71.5579 95.2991 71.3144 95.6056 71.157C95.7945 71.0597 95.9639 70.9125 96.1176 70.7625C96.5806 70.3125 97.037 69.8551 97.5796 69.4958C97.6537 69.4468 97.7306 69.381 97.7695 69.3042C97.9222 69.006 98.1806 68.8023 98.3972 68.5597C98.6482 68.2783 98.9324 68.0097 99.112 67.6857C99.2509 67.4357 99.3741 67.1764 99.55 66.9505C99.7046 66.7523 99.9019 66.5829 99.9241 66.306C99.9278 66.2579 99.9667 66.1996 100.007 66.169C100.154 66.0597 100.18 65.8977 100.223 65.7375C100.251 65.6338 100.282 65.5171 100.351 65.4412C100.481 65.2959 100.527 65.1273 100.568 64.9459C100.595 64.8227 100.632 64.6912 100.703 64.5912C100.823 64.4218 100.884 64.2394 100.941 64.044C101.01 63.8014 101.147 63.5773 101.21 63.3338C101.278 63.069 101.292 62.7912 101.331 62.519C101.337 62.4829 101.345 62.4449 101.365 62.4144C101.581 62.0709 101.594 61.6792 101.599 61.2986C101.616 60.0709 101.617 58.8431 101.606 57.6153C101.603 57.2875 101.591 56.9394 101.48 56.6403C101.362 56.3246 101.292 56.0144 101.271 55.6847C101.267 55.6125 101.256 55.5357 101.225 55.4718C101.049 55.1088 100.892 54.7412 100.832 54.3366C100.823 54.2709 100.756 54.2153 100.723 54.1505C100.66 54.0209 100.602 53.8884 100.544 53.756C100.478 53.6079 100.425 53.4514 100.346 53.3107C100.214 53.0746 100.105 52.8264 99.9602 52.594C99.8222 52.3736 99.787 52.0838 99.5871 51.8847C99.5537 51.5468 99.2685 51.3653 99.1028 51.1107C99.0639 51.0505 98.9796 51.0153 98.9537 50.9523C98.7259 50.3931 98.2602 50.0246 97.8704 49.5968C97.4926 49.1829 97.1065 48.7746 96.6954 48.3959C96.5037 48.2199 96.3371 47.9801 96.0232 47.9607C95.937 47.9551 95.8593 47.831 95.7778 47.7616C95.4028 47.4468 95.0713 47.0746 94.588 46.9088C94.5222 46.8866 94.4537 46.8403 94.4111 46.7857C94.312 46.657 94.175 46.6236 94.0306 46.5875C93.9435 46.5653 93.8315 46.5468 93.7833 46.4847C93.6574 46.3246 93.4843 46.2903 93.3083 46.2366C93.2093 46.206 93.1176 46.1375 93.0352 46.0699C92.7787 45.8597 92.3806 45.957 92.162 45.6616C92.1361 45.6264 92.0611 45.6209 92.0074 45.6162C91.825 45.6005 91.6417 45.5921 91.4593 45.581C91.2945 45.5709 91.1232 45.5699 90.9982 45.4394C90.8583 45.2931 90.6806 45.2699 90.4945 45.2634C90.238 45.2542 89.9806 45.2551 89.725 45.231C89.5833 45.2181 89.4157 45.2005 89.3111 45.119C89.087 44.944 88.8398 44.932 88.5833 44.931C87.8315 44.9283 87.0796 44.9264 86.3287 44.9283C85.9444 44.9283 85.5583 44.9107 85.1972 45.0884C85.1185 45.1273 85.0185 45.1209 84.9278 45.1366C84.3537 45.2366 83.7593 45.2477 83.2204 45.5088C83.188 45.5246 83.1509 45.5357 83.1148 45.5394C82.7306 45.581 82.3565 45.6533 82.0278 45.8773C81.9852 45.906 81.9232 45.9116 81.8694 45.9171C81.6639 45.9366 81.5 46.0153 81.3324 46.1505C81.1232 46.319 80.875 46.4718 80.6185 46.5421C80.3056 46.6283 80.0454 46.7903 79.8037 46.9755C79.5 47.2088 79.1324 47.3366 78.8537 47.6134C78.6648 47.8005 78.4741 48.0162 78.1759 48.057C78.1287 48.0634 78.0824 48.1116 78.0435 48.1486C77.7694 48.4134 77.4944 48.6773 77.2259 48.9468C76.737 49.4366 76.2852 49.9588 75.8843 50.5236C75.6343 50.8755 75.262 51.1449 75.162 51.5968C74.8528 51.9199 74.7398 52.3607 74.4907 52.719C74.3296 52.9496 74.225 53.1959 74.162 53.4671C74.138 53.569 74.0926 53.6875 74.0176 53.7514C73.8944 53.857 73.8537 53.9838 73.8204 54.1292C73.7963 54.2338 73.7704 54.3607 73.6991 54.4283C73.5176 54.5996 73.5046 54.8116 73.4917 55.032C73.4796 55.232 73.4972 55.4449 73.3667 55.6144C73.1852 55.8496 73.1685 56.119 73.1639 56.3959C73.1593 56.6338 73.1491 56.8727 73.1407 57.1107C73.1352 57.2773 73.1083 57.431 72.9935 57.5699C72.7657 57.8468 72.7898 58.1681 72.9667 58.4375C73.1083 58.6533 73.1454 58.869 73.1676 59.107C73.1806 59.2505 73.175 59.4301 73.2565 59.5264C73.4815 59.7912 73.4824 60.0959 73.4954 60.407C73.5056 60.6449 73.5139 60.8755 73.7056 61.0671C73.7852 61.1477 73.7935 61.3014 73.8278 61.4236C73.8667 61.5644 73.8657 61.7273 73.9398 61.844C74.1028 62.1014 74.1537 62.3838 74.2074 62.6727C74.2306 62.7968 74.2889 62.9144 74.3287 63.0347C74.3861 63.206 74.4815 63.3764 74.4917 63.5505C74.525 64.144 74.9694 64.6153 74.9639 65.2162C74.9639 65.2486 74.988 65.2884 75.012 65.3125C75.2963 65.5912 75.2194 66.0523 75.5213 66.3209C75.5528 66.5199 75.5778 66.7199 75.6176 66.9162C75.6583 67.1162 75.9056 67.207 75.9009 67.4347C75.9009 67.4523 75.9037 67.4727 75.9111 67.4884C75.9657 67.6005 76.0194 67.7134 76.0778 67.8227C76.1194 67.9014 76.1972 67.9736 76.2083 68.0551C76.2676 68.4755 76.5537 68.7709 76.7796 69.0931C77.0824 69.5246 77.4704 69.8847 77.8722 70.2264C77.9954 70.331 78.1056 70.4551 78.2398 70.5431C78.7556 70.8801 79.263 71.2273 79.7583 71.5958C79.9685 71.7523 80.1333 72.0088 80.45 72.0033C80.5111 72.0023 80.588 72.0616 80.6315 72.1144C80.7472 72.256 80.9093 72.2746 81.0694 72.3162C81.2074 72.3523 81.338 72.4199 81.4704 72.4773C81.5704 72.5209 81.6639 72.5977 81.7667 72.6134C82.0407 72.6533 82.3037 72.694 82.5009 72.9218C82.5398 72.9662 82.6389 72.9579 82.7093 72.9773C82.8148 73.006 82.9454 73.0088 83.0185 73.0755C83.275 73.3079 83.5861 73.307 83.8972 73.3236C84.0796 73.3338 84.2778 73.3153 84.4213 73.4468C84.6037 73.6134 84.8204 73.6153 85.0389 73.6218C85.8083 73.6449 86.5778 73.6644 87.3426 73.6847L87.3417 73.6884ZM56.4759 67.0209C56.3278 66.6338 55.9639 66.381 55.9676 65.9384C55.9676 65.8653 55.8731 65.7921 55.8231 65.7171C55.7833 65.657 55.7278 65.5996 55.712 65.5338C55.6713 65.356 55.6704 65.1662 55.6111 64.9959C55.5528 64.8292 55.438 64.682 55.3583 64.5218C55.3268 64.4579 55.3296 64.3783 55.3055 64.3097C55.2759 64.2255 55.2528 64.1255 55.1926 64.0671C55.0472 63.9246 55.0231 63.7468 55.0102 63.5634C54.9889 63.2671 54.9037 62.9977 54.7778 62.7246C54.6278 62.3986 54.5935 62.0255 54.3889 61.7134C54.3333 61.6292 54.3491 61.4996 54.325 61.3921C54.2768 61.1783 54.2305 60.9634 54.1722 60.7514C54.1055 60.506 54.0111 60.2662 53.9574 60.0181C53.8852 59.6792 53.862 59.332 53.6741 59.0227C53.6111 58.919 53.6185 58.7755 53.5861 58.6514C53.55 58.5107 53.5287 58.3597 53.4602 58.2357C53.3407 58.0199 53.2898 57.7921 53.2667 57.5542C53.2361 57.2421 53.187 56.9412 53.0185 56.6634C52.9463 56.544 52.9426 56.3838 52.9092 56.2412C52.8805 56.1171 52.8833 55.9736 52.8204 55.8709C52.6379 55.5773 52.6065 55.2542 52.5667 54.9255C52.5472 54.7662 52.5129 54.5921 52.4305 54.4597C52.3287 54.2977 52.287 54.1301 52.2472 53.9505C52.2083 53.7736 52.137 53.6042 52.0759 53.4329C52.0398 53.331 51.9759 53.2347 51.9574 53.1301C51.8778 52.6783 51.7805 52.2338 51.5833 51.8153C51.5296 51.7014 51.5148 51.569 51.4787 51.4459C51.4481 51.3412 51.4213 51.2338 51.3787 51.1329C51.2083 50.731 51.0361 50.3301 50.8574 49.932C50.6944 49.5681 50.462 49.2329 50.4213 48.8181C50.4157 48.7579 50.3315 48.7079 50.2907 48.6477C50.1407 48.4218 49.9741 48.2033 49.8518 47.9634C49.7685 47.7996 49.675 47.656 49.5611 47.5107C49.2361 47.0968 48.8685 46.7255 48.5 46.3542C48.1379 45.9884 47.6768 45.7634 47.2305 45.5403C46.9629 45.407 46.6407 45.3681 46.3629 45.2209C46.2722 45.1727 46.1491 45.1727 46.0398 45.1718C45.6 45.169 45.1602 45.1671 44.7204 45.1792C44.5972 45.1829 44.4444 45.1996 44.3602 45.2727C44.1954 45.4162 44.0074 45.4514 43.8092 45.4912C43.6852 45.5162 43.5407 45.5421 43.4509 45.6199C43.0657 45.9542 42.5787 46.1523 42.2379 46.5459C42.1203 46.682 41.9722 46.794 41.8324 46.9097C41.6481 47.0625 41.3528 47.4579 41.2629 47.682C41.2296 47.7653 41.212 47.8709 41.15 47.9255C41.0037 48.0551 40.9416 48.219 40.8824 48.394C40.8537 48.4773 40.7963 48.5551 40.737 48.6227C40.4722 48.9255 40.2111 49.2283 40.1898 49.6607C40.187 49.7125 40.162 49.7709 40.1315 49.8134C39.9148 50.1097 39.9518 50.5292 39.6583 50.7894C39.6241 50.8199 39.6129 50.8921 39.6139 50.9449C39.6213 51.4681 39.2407 51.8523 39.1194 52.3283C38.8842 52.5959 38.8611 52.9246 38.8463 53.257C38.8352 53.5153 38.8018 53.7644 38.6398 53.9847C38.5778 54.069 38.5435 54.1847 38.5296 54.2903C38.4991 54.5292 38.4713 54.7597 38.3018 54.9542C38.2463 55.0181 38.2129 55.1209 38.2102 55.2079C38.1972 55.5273 38.1157 55.8181 37.9194 56.0764C37.8787 56.1301 37.8694 56.2144 37.8629 56.2857C37.8278 56.681 37.8889 57.1005 37.5657 57.4209C37.5472 57.6209 37.5268 57.8209 37.5111 58.0218C37.4972 58.2042 37.5139 58.3977 37.3713 58.5394C37.2129 58.6968 37.1981 58.8921 37.1787 59.0949C37.1592 59.294 37.1694 59.5209 37.075 59.681C36.9102 59.9597 36.8416 60.2505 36.7972 60.5597C36.7796 60.6838 36.7352 60.8144 36.6676 60.9181C36.5509 61.0949 36.5065 61.2884 36.4926 61.4894C36.4491 62.1162 36.0546 62.6523 36.0305 63.2847C36.0278 63.3496 35.9574 63.4097 35.9268 63.4755C35.8805 63.5746 35.8166 63.6755 35.8065 63.7792C35.7759 64.0727 35.6963 64.3431 35.4491 64.5949C35.5981 64.6505 35.6916 64.7107 35.7898 64.7162C36.0453 64.731 36.3028 64.7236 36.5592 64.7236C36.8 64.7236 37.0278 64.7357 37.2278 64.9125C37.3139 64.9884 37.4602 65.007 37.5833 65.0283C37.7083 65.0505 37.8389 65.0477 37.9666 65.0505C38.1953 65.0542 38.3898 65.1134 38.5546 65.2931C38.6879 65.4384 38.8435 65.607 39.0194 65.6579C39.2907 65.7357 39.5213 65.8542 39.7481 66.0144C39.9185 66.1347 40.1083 66.0579 40.2037 65.8653C40.2759 65.7181 40.3176 65.5514 40.4092 65.419C40.5537 65.2097 40.5935 64.9857 40.5907 64.7421C40.5889 64.5773 40.5805 64.4107 40.5991 64.2477C40.6148 64.1051 40.6278 63.9394 40.7065 63.8301C40.9037 63.556 40.9287 63.257 40.9231 62.9412C40.9194 62.7384 40.9231 62.532 41.0528 62.3616C41.2176 62.144 41.2583 61.8986 41.2518 61.6357C41.2472 61.4134 41.2583 61.1931 41.4028 61.007C41.5583 60.806 41.5861 60.5736 41.5824 60.331C41.5805 60.2023 41.5852 60.0746 41.5833 59.9459C41.5805 59.7218 41.612 59.507 41.7537 59.3218C41.8704 59.1699 41.9065 58.9921 41.9148 58.8051C41.9231 58.6181 41.9611 58.4366 42.0879 58.294C42.2981 58.0588 42.3611 57.782 42.3491 57.4792C42.3389 57.2171 42.3852 56.9708 42.5296 56.7449C42.6629 56.5357 42.6741 56.2968 42.6805 56.056C42.6852 55.8792 42.6407 55.6912 42.7648 55.506C42.8833 55.582 42.9926 55.6523 43.1352 55.7431C43.25 55.4088 43.2796 55.1246 43.0815 54.8736C42.9731 54.7366 42.9268 54.594 42.887 54.431C42.7861 54.0107 42.4935 53.6533 42.4787 53.2005C42.4768 53.144 42.3815 53.0958 42.3416 53.0357C42.1731 52.782 42.2046 52.5847 42.4389 52.369C42.5065 52.307 42.5657 52.2375 42.6361 52.1792C42.8148 52.031 43.0222 51.9727 43.2518 52.0134C43.4629 52.0505 43.6324 52.1347 43.6722 52.3801C43.6889 52.4857 43.7166 52.6125 43.787 52.681C43.9629 52.8523 43.9852 53.0607 44.0102 53.282C44.0268 53.4218 44.0509 53.5884 44.1361 53.6875C44.2787 53.8542 44.3241 54.0347 44.3528 54.2375C44.3676 54.3449 44.3796 54.4699 44.4407 54.5505C44.65 54.8264 44.7102 55.1459 44.7676 55.4718C44.787 55.5783 44.8157 55.6912 44.8722 55.7801C45.037 56.0394 45.0666 56.3264 45.0981 56.6199C45.1148 56.781 45.1296 56.9597 45.2102 57.0912C45.3398 57.3033 45.4176 57.5218 45.4157 57.7634C45.4139 58.0208 45.5852 58.1977 45.6741 58.4125C45.7704 58.6449 45.8018 58.9033 45.8629 59.1505C45.8666 59.1662 45.8833 59.181 45.8963 59.1931C46.0555 59.3458 46.0815 59.5449 46.0852 59.7496C46.0898 59.9921 46.1287 60.2134 46.3046 60.4097C46.3805 60.494 46.3917 60.6458 46.4074 60.7699C46.4287 60.9329 46.412 61.1014 46.4361 61.2634C46.4546 61.3847 46.4815 61.5292 46.5592 61.6125C46.7111 61.7764 46.7352 61.9634 46.7602 62.1653C46.7778 62.307 46.7889 62.4801 46.8741 62.5764C47.0491 62.7755 47.0667 63.0005 47.0898 63.2384C47.1037 63.381 47.1065 63.5607 47.1907 63.6542C47.3991 63.8829 47.4092 64.1468 47.4204 64.4227C47.4287 64.6227 47.4111 64.8357 47.5537 64.9996C47.7241 65.1959 47.7361 65.4301 47.7565 65.669C47.7704 65.832 47.7509 66.0329 47.837 66.1486C48.0731 66.4671 48.1037 66.8671 48.3074 67.1959C48.4009 67.3468 48.4454 67.5338 48.487 67.7107C48.5926 68.1542 48.8611 68.5459 48.8963 69.0116C48.8991 69.044 48.9278 69.0783 48.9518 69.1042C49.0824 69.2431 49.1389 69.4125 49.1852 69.5931C49.2111 69.694 49.2805 69.7838 49.3305 69.8792C49.3879 69.9903 49.4481 70.1005 49.5018 70.2134C49.5481 70.3107 49.562 70.4394 49.6352 70.5042C49.7704 70.6255 49.8092 70.7755 49.8555 70.9347C49.8805 71.019 49.9222 71.107 49.9815 71.1699C50.6 71.832 51.1287 72.581 51.8907 73.106C52.0333 73.2042 52.1611 73.2857 52.3278 73.2959C52.5694 73.3116 52.7907 73.3496 52.9815 73.5329C53.0611 73.6088 53.2204 73.6264 53.3435 73.6273C54.0759 73.6338 54.8092 73.632 55.5417 73.6209C55.6648 73.619 55.8167 73.5949 55.9028 73.5209C56.0491 73.394 56.2129 73.3449 56.3861 73.2838C56.5685 73.219 56.7231 73.081 56.9028 73.0023C57.4296 72.7718 57.775 72.4857 58.1102 71.9718C58.425 71.4884 58.4315 71.4829 58.0574 71.0514C57.8852 70.8523 57.7352 70.6597 57.7491 70.3773C57.7583 70.1875 57.6491 70.0347 57.5583 69.8727C57.388 69.5699 57.3611 69.231 57.538 68.9301C57.6954 68.6634 57.7555 68.3921 57.75 68.0931C57.7463 67.8894 57.7574 67.6847 57.8889 67.5162C58.0583 67.2986 58.0713 67.0477 58.0842 66.7884C58.0935 66.6097 58.1 66.4023 58.1907 66.2616C58.3713 65.982 58.4185 65.6903 58.4111 65.3727C58.4055 65.1709 58.4055 64.9616 58.5481 64.7977C58.7194 64.6023 58.7296 64.3708 58.7454 64.1292C58.7583 63.931 58.7676 63.7116 58.8583 63.5449C59.0231 63.2412 59.0833 62.931 59.0741 62.5958C59.0694 62.4079 59.1157 62.2301 59.2389 62.0838C59.4528 61.8301 59.5009 61.5329 59.5139 61.2125C59.5213 61.0357 59.5639 60.8449 59.6454 60.6894C59.7768 60.4366 59.8463 60.1801 59.8361 59.8986C59.8268 59.6366 59.8731 59.3903 60.0176 59.1644C60.1407 58.9727 60.1685 58.7533 60.1648 58.5301C60.1602 58.2857 60.2296 58.0681 60.338 57.8468C60.4241 57.6718 60.4546 57.4662 60.4907 57.2709C60.5139 57.1459 60.4944 57.0144 60.5083 56.8875C60.5407 56.5921 60.7565 56.2718 61.0222 56.1144C61.2102 56.4199 61.4981 56.6709 61.5259 57.0625C61.5268 57.0783 61.5426 57.0977 61.5565 57.106C61.5861 57.1236 61.6204 57.1486 61.6509 57.1459C61.6815 57.1431 61.7259 57.1171 61.737 57.0903C61.813 56.9088 61.7907 56.7329 61.688 56.5671C61.6398 56.4894 61.5472 56.4199 61.5389 56.3403C61.4954 55.8986 61.2972 55.5116 61.1463 55.1051C61.0583 54.8671 61.0204 54.6144 60.8741 54.394C60.8055 54.2903 60.7639 54.1597 60.7407 54.0357C60.6972 53.8005 60.6389 53.5838 60.4926 53.3783C60.3259 53.144 60.3176 52.8329 60.4204 52.5847C60.5204 52.3449 60.7111 52.1209 60.9731 52.0153C61.1287 51.9533 61.3398 51.944 61.4296 52.0921C61.5685 52.3199 61.8287 52.4736 61.8491 52.781C61.8555 52.8792 61.9398 52.9736 61.9907 53.069C62.0333 53.1486 62.1028 53.2218 62.1176 53.306C62.1704 53.6153 62.2333 53.9181 62.4241 54.1783C62.475 54.6357 62.6843 55.0486 62.7935 55.4847C62.9315 56.032 63.2954 56.5097 63.2787 57.0996C63.2787 57.132 63.3037 57.169 63.3259 57.1977C63.5241 57.4616 63.5426 57.7727 63.5685 58.0847C63.5815 58.2449 63.6 58.4236 63.6796 58.556C63.8278 58.8033 63.8805 59.0634 63.9 59.3403C63.913 59.5227 63.9157 59.7134 64.0555 59.8542C64.1963 59.9968 64.2204 60.1727 64.2389 60.3579C64.2546 60.5209 64.2287 60.7283 64.3185 60.8366C64.5222 61.0829 64.5676 61.356 64.6 61.6496C64.6092 61.7366 64.6444 61.8357 64.7009 61.8996C64.8731 62.0958 64.8731 62.3329 64.9 62.5699C64.9222 62.7681 64.9241 62.9894 65.0167 63.1542C65.1555 63.4005 65.2361 63.6496 65.275 63.9255C65.2944 64.0671 65.3639 64.2023 65.4157 64.3384C65.4602 64.457 65.537 64.569 65.5565 64.6903C65.6037 64.9829 65.6768 65.2588 65.8268 65.5199C65.8972 65.6421 65.9102 65.7996 65.9352 65.944C65.9907 66.2671 66.0139 66.5931 66.2315 66.8727C66.3111 66.9755 66.2944 67.1533 66.3241 67.2959C66.35 67.4209 66.337 67.5866 66.413 67.6616C66.688 67.9329 66.6185 68.3718 66.9093 68.6255C66.9278 69.0755 67.1907 69.444 67.3213 69.856C67.3657 69.9968 67.3944 70.132 67.5213 70.2329C67.587 70.2847 67.6278 70.3792 67.6574 70.4625C67.7648 70.7607 67.9741 70.9912 68.1565 71.2394C68.2204 71.3264 68.2759 71.4199 68.338 71.5079C68.4528 71.6709 68.5583 71.8431 68.6907 71.9912C68.8722 72.1959 69.0768 72.3801 69.2676 72.5764C69.4454 72.7588 69.6315 72.906 69.8704 73.0255C70.1111 73.1458 70.3333 73.2977 70.6018 73.3579C70.6343 73.3653 70.6685 73.3931 70.6898 73.4209C70.8463 73.6181 71.0704 73.6283 71.2898 73.631C71.9315 73.6394 72.5722 73.6421 73.2139 73.6394C73.4519 73.6384 73.6852 73.6227 73.8667 73.4162C73.9296 73.344 74.0657 73.3384 74.1657 73.2949C74.2639 73.2523 74.3667 73.2134 74.4509 73.1496C74.6796 72.9755 74.8843 72.769 75.0972 72.5783C75.3009 72.3959 75.537 72.1894 75.5833 71.8727C75.5954 71.7884 75.6537 71.707 75.7037 71.632C75.987 71.2042 75.9731 70.7459 75.7343 70.3338C75.2565 69.5088 74.9713 68.5996 74.5435 67.7542C74.5028 67.6746 74.5037 67.5755 74.4741 67.4894C74.4333 67.369 74.3796 67.2533 74.3352 67.1338C74.2667 66.9459 74.2 66.757 74.137 66.5671C74.1083 66.4801 74.1167 66.3699 74.0648 66.3051C73.8861 66.081 73.8509 65.8088 73.7593 65.5533C73.6426 65.2273 73.4843 64.9181 73.4305 64.5699C73.4231 64.519 73.3935 64.4616 73.3556 64.4273C73.1898 64.2773 73.1898 64.0736 73.1481 63.8764C73.0435 63.381 72.7917 62.9283 72.7194 62.4218C72.7167 62.4051 72.7046 62.3875 72.6917 62.3746C72.5389 62.2171 72.5333 62.0144 72.5009 61.8144C72.4602 61.5625 72.437 61.2949 72.3287 61.0718C72.2287 60.8671 72.1722 60.6681 72.1417 60.4496C72.1269 60.3412 72.1176 60.2218 72.0639 60.131C71.8639 59.7884 71.8417 59.4014 71.7491 59.0301C71.6352 58.5699 71.5028 58.1125 71.3389 57.6671C71.262 57.4588 71.188 57.2579 71.1704 57.0366C71.1213 56.4088 70.7759 55.8597 70.6907 55.2412C70.6861 55.207 70.663 55.1736 70.6417 55.144C70.4815 54.9283 70.4537 54.6718 70.4148 54.4181C70.3898 54.256 70.3954 54.0653 70.3093 53.9412C70.1083 53.6514 70.0889 53.3273 70.0435 53.0023C70.0278 52.894 70.013 52.782 69.9722 52.682C69.8398 52.3634 69.6935 52.0505 69.5546 51.7338C69.5111 51.6347 69.4546 51.5357 69.4398 51.431C69.3954 51.1181 69.3028 50.8273 69.138 50.5551C69.0639 50.4329 69.0111 50.2857 68.9898 50.144C68.9268 49.7375 68.6676 49.4162 68.5176 49.0486C68.3685 48.6838 68.0833 48.3829 67.9361 48.0023C67.8389 47.7514 67.6935 47.5051 67.5185 47.3014C67.1102 46.8255 66.688 46.3496 66.1509 46.0171C65.7704 45.781 65.4055 45.4847 64.9231 45.4496C64.8204 45.4421 64.6991 45.3968 64.6268 45.3273C64.4778 45.182 64.3009 45.1727 64.1185 45.1681C63.862 45.1607 63.6055 45.157 63.3491 45.157C62.9287 45.157 62.4991 45.1199 62.1407 45.4171C62.1148 45.4394 62.0731 45.4459 62.038 45.4533C61.4593 45.5653 61.0259 45.9329 60.5972 46.2959C60.3204 46.5301 60.0639 46.7931 59.8278 47.0681C59.3676 47.6023 58.8472 48.1014 58.687 48.8329C58.6731 48.8968 58.6 48.9468 58.5592 49.007C58.5185 49.0662 58.4565 49.1283 58.4518 49.1921C58.4222 49.5709 58.0352 49.7959 58.0315 50.182C57.7426 50.3968 57.7639 50.7218 57.7278 51.0283C57.7194 51.0996 57.7074 51.1866 57.663 51.2347C57.4639 51.4514 57.4259 51.7209 57.375 51.9921C57.3518 52.1153 57.2805 52.2292 57.237 52.3486C57.1805 52.5014 57.1231 52.6542 57.0768 52.8097C56.9157 53.3496 56.6537 53.8579 56.5611 54.4199C56.4018 54.6347 56.3555 54.8847 56.3259 55.1421C56.3157 55.232 56.3046 55.3357 56.2537 55.4042C56.0324 55.7033 56.0111 56.0477 55.9972 56.3977C55.9898 56.581 55.9731 56.7662 55.8444 56.9144C55.7167 57.0616 55.6852 57.2384 55.675 57.4255C55.6648 57.6097 55.6509 57.7921 55.4944 57.9264C55.3722 58.032 55.3537 58.1829 55.3518 58.3292C55.3454 58.8421 55.3417 59.3551 55.35 59.8671C55.3518 59.9903 55.3667 60.1514 55.4426 60.2292C55.6759 60.4681 55.6694 60.7579 55.6805 61.0496C55.6898 61.2894 55.7 61.5162 55.8935 61.7079C55.9713 61.7847 55.9889 61.9431 55.9972 62.0671C56.0148 62.3088 56.0398 62.5338 56.2259 62.7227C56.2935 62.7912 56.312 62.9236 56.3213 63.0301C56.3454 63.3246 56.3731 63.6023 56.5907 63.8449C56.6898 63.956 56.6926 64.1523 56.7454 64.3079C56.7981 64.4616 56.85 64.6171 56.9167 64.7644C57.038 65.0301 57.1704 65.2912 57.2972 65.5551C57.412 65.7931 57.4491 66.0468 57.4083 66.3051C57.3685 66.5551 57.2574 66.7486 56.9805 66.8153C56.8259 66.8523 56.6815 66.931 56.4768 67.0144L56.4759 67.0209ZM38.6833 73.2134C38.8759 72.9792 39.0287 72.8023 39.1731 72.6181C39.5444 72.144 39.9037 71.6672 39.9315 71.0227C39.9389 70.8468 40.0241 70.6736 40.0805 70.5014C40.175 70.2134 40.2055 69.9144 40.0787 69.6431C39.95 69.369 39.9305 69.0801 39.8676 68.7959C39.8361 68.6533 39.837 68.4866 39.7592 68.3755C39.5398 68.0653 39.3861 67.7079 39.0852 67.456C38.7815 67.2023 38.475 66.9486 38.1991 66.6662C38.0852 66.5496 37.9759 66.4921 37.8268 66.4764C37.6268 66.4551 37.4148 66.4588 37.2546 66.319C37.0879 66.1746 36.8944 66.1505 36.6907 66.1514C36.3981 66.1523 36.1046 66.1486 35.8129 66.1699C35.6722 66.1801 35.5222 66.219 35.3981 66.2847C35.2009 66.3894 34.9991 66.4579 34.7787 66.4912C34.675 66.507 34.5481 66.5403 34.4852 66.6125C34.3055 66.8162 34.0676 66.944 33.8676 67.1209C33.3528 67.5773 33.0972 68.1986 32.7296 68.7477C32.6916 68.8042 32.6842 68.8884 32.6842 68.9607C32.6824 69.7283 32.6833 70.4959 32.6879 71.2634C32.6879 71.3921 32.724 71.5144 32.8324 71.607C32.8861 71.6533 32.95 71.7107 32.9657 71.7736C33.0833 72.2338 33.4111 72.5607 33.7157 72.882C34.0703 73.256 34.4426 73.644 35.0157 73.6959C35.1203 73.7051 35.2379 73.7496 35.3185 73.8153C35.5055 73.9653 35.7185 73.9838 35.9389 73.9884C36.1944 73.9931 36.4518 73.9783 36.7065 73.9912C37.225 74.0181 37.6435 73.7181 38.1055 73.5662C38.3222 73.4949 38.5055 73.3246 38.6842 73.2125L38.6833 73.2134ZM43.9991 58.5783C44.0407 58.6477 44.0898 58.732 44.1435 58.8153C44.1472 58.8218 44.1787 58.8171 44.1926 58.8097C44.3102 58.7421 44.2907 58.632 44.2685 58.5283C44.2574 58.4783 44.2333 58.4181 44.1954 58.3912C44.1657 58.3699 44.0889 58.3764 44.0629 58.4014C44.0296 58.4329 44.0259 58.4968 43.9981 58.5792L43.9991 58.5783ZM61.2454 64.4736C61.212 64.6675 61.2287 64.8119 61.2954 64.907C61.3861 64.7773 61.3944 64.657 61.2454 64.4736ZM42.787 66.3838C42.8981 66.207 42.8972 66.0866 42.7916 65.9375C42.6685 66.0912 42.6648 66.2116 42.787 66.3838ZM60.2843 68.0496C60.3373 67.8496 60.3234 67.7048 60.2426 67.6153C60.1509 67.7431 60.1454 67.8671 60.2843 68.0496ZM44.1379 61.3338C44.0963 61.432 44.0546 61.4903 44.0537 61.5496C44.0537 61.5847 44.1166 61.6208 44.1509 61.656C44.1889 61.6023 44.2426 61.5523 44.2583 61.4921C44.2657 61.4634 44.2037 61.4162 44.1379 61.3338ZM43.8629 57.6857C43.8546 57.6208 43.8278 57.557 43.8046 57.4949C43.8028 57.4894 43.7583 57.4894 43.7555 57.4949C43.7333 57.5579 43.7018 57.6227 43.7028 57.6857C43.7028 57.7144 43.7704 57.7421 43.8074 57.7709C43.8268 57.7421 43.8657 57.7116 43.862 57.6866L43.8629 57.6857ZM62.4731 59.3523C62.4055 59.2986 62.3444 59.2394 62.337 59.2459C62.2889 59.2857 62.2426 59.3357 62.2194 59.3921C62.212 59.4097 62.2972 59.4921 62.313 59.4847C62.3667 59.4607 62.4074 59.4097 62.4731 59.3523ZM59.9204 68.3838C59.838 68.4329 59.8342 68.6097 59.9157 68.657C59.9287 68.6644 59.9537 68.6653 59.9667 68.657C60.0481 68.6116 60.0509 68.4292 59.9713 68.3838C59.9583 68.3764 59.937 68.3829 59.9204 68.3838ZM59.5398 69.2644C59.5204 69.3357 59.4972 69.3783 59.5009 69.419C59.5028 69.4403 59.5648 69.4792 59.5731 69.4736C59.6083 69.4496 59.6583 69.4079 59.6555 69.3764C59.6528 69.344 59.5963 69.3162 59.5398 69.2644ZM43.4926 56.4977C43.4463 56.5273 43.3954 56.5458 43.3963 56.5625C43.3991 56.607 43.4222 56.6505 43.4379 56.6949C43.4648 56.6773 43.5129 56.6625 43.5148 56.6421C43.5204 56.5986 43.5028 56.5514 43.4926 56.4977ZM41.762 68.9459C41.7185 68.9773 41.6676 69.007 41.6704 69.0134C41.6879 69.0542 41.7166 69.0894 41.7426 69.1264C41.7685 69.107 41.8185 69.0847 41.8166 69.069C41.8111 69.0273 41.7833 68.9884 41.7629 68.9449L41.762 68.9459Z" fill="url(#paint4_linear_2540_703)"/>
<path d="M40.4881 96.5968H39.9992C39.8437 96.532 39.8002 96.3209 39.5937 96.2727C39.3659 96.2199 39.2437 96.0153 39.2085 95.7838C39.1742 95.5644 39.1326 95.3616 38.9585 95.195C38.8928 95.132 38.8881 94.9912 38.8779 94.8838C38.8594 94.6829 38.8585 94.4811 38.8474 94.2801C38.8372 94.0968 38.8178 93.9227 38.6854 93.769C38.5641 93.6283 38.5344 93.444 38.5233 93.2551C38.5057 92.9709 38.5418 92.6718 38.2604 92.457C38.1863 92.4005 38.202 92.2181 38.1891 92.0931C38.1631 91.8431 38.2029 91.5764 37.9381 91.4051C37.8816 91.3681 37.8724 91.2403 37.8641 91.1524C37.8455 90.9699 37.8483 90.7857 37.8289 90.6042C37.8159 90.4774 37.8242 90.3125 37.7502 90.2357C37.5039 89.982 37.5233 89.6699 37.5011 89.3644C37.4826 89.1088 37.4724 88.8672 37.2715 88.6542C37.1761 88.5524 37.1881 88.3449 37.1631 88.1838C37.1326 87.9875 37.1298 87.8005 36.9622 87.6357C36.8613 87.5357 36.8455 87.3357 36.8205 87.1764C36.7733 86.8718 36.7826 86.557 36.5372 86.3098C36.4724 86.2449 36.4752 86.1042 36.465 85.9959C36.4492 85.832 36.4502 85.6662 36.44 85.5014C36.4261 85.2792 36.3928 85.0709 36.1918 84.9181C36.1131 84.8579 36.0798 84.7385 36.0205 84.6366H35.4409C35.3789 84.7014 35.3113 84.7885 35.2279 84.8561C35.1057 84.9561 35.0446 85.0727 35.0409 85.2329C35.0344 85.5644 34.9854 85.8829 34.8113 86.1811C34.7428 86.2986 34.7483 86.4644 34.7372 86.6098C34.7094 86.957 34.6974 87.3051 34.6696 87.6524C34.6455 87.9422 34.6094 88.2227 34.4928 88.5042C34.3844 88.7662 34.3798 89.0764 34.3557 89.3672C34.3298 89.6959 34.3391 90.0264 34.3224 90.3561C34.3131 90.5357 34.2937 90.7042 34.1613 90.8635C34.0659 90.9783 34.0363 91.1635 34.0178 91.3227C33.9881 91.5764 33.9918 91.8348 33.9807 92.0912C33.9687 92.3662 33.9613 92.6357 33.7742 92.8727C33.7029 92.9635 33.6881 93.1107 33.6789 93.2348C33.6567 93.5088 33.6539 93.7838 33.6437 94.0588C33.6335 94.3144 33.6242 94.5616 33.4872 94.8005C33.4011 94.9505 33.39 95.1496 33.3668 95.3301C33.3326 95.6024 33.3168 95.8764 33.2918 96.1746C33.1205 96.2412 32.9474 96.2931 32.79 96.3755C32.6992 96.4227 32.6446 96.5598 32.5548 96.5838C32.4187 96.62 32.2668 96.5931 32.1076 96.5931C32.0594 96.5107 32.027 96.3801 31.9687 96.3681C31.7057 96.3135 31.6854 96.0616 31.552 95.9051C31.3168 95.6292 31.3298 95.3172 31.4798 95.0311C31.6057 94.7912 31.6409 94.5477 31.6548 94.2922C31.6687 94.0357 31.6733 93.7792 31.6798 93.5227C31.6872 93.232 31.6826 92.9514 31.8854 92.6959C31.977 92.5811 31.9807 92.3848 31.9937 92.2227C32.0168 91.9487 32.0131 91.6737 32.0261 91.3987C32.0372 91.1644 32.0141 90.9292 32.2326 90.745C32.3104 90.6792 32.3196 90.5098 32.327 90.3857C32.3511 90.02 32.3585 89.6533 32.3733 89.2866C32.3798 89.1218 32.3724 88.9486 32.4937 88.8181C32.6446 88.6551 32.6567 88.4542 32.6641 88.2533C32.6807 87.7774 32.6946 87.3005 32.7029 86.8246C32.7076 86.5644 32.7465 86.3209 32.8872 86.0903C32.9594 85.9718 32.9891 85.819 33.0048 85.6774C33.0298 85.4598 33.0261 85.2385 33.0344 85.019C33.0446 84.7459 33.0252 84.4644 33.2881 84.2746C33.3252 84.2477 33.3418 84.1792 33.3502 84.1274C33.4076 83.7616 33.6696 83.5375 33.915 83.3024C33.9335 83.2848 34.5039 82.9153 34.5224 82.9088C34.5567 82.8968 34.6039 82.8959 34.6242 82.8718C34.89 82.5662 35.2502 82.6264 35.5909 82.619C35.7928 82.6144 35.9946 82.6172 36.1955 82.6218C36.4326 82.6264 36.6742 82.6135 36.8316 82.8505C36.8566 82.8885 36.9261 82.9033 36.9779 82.9181C37.515 83.0644 37.7622 83.5274 38.0613 83.9255C38.1381 84.0283 38.127 84.2042 38.1391 84.3477C38.1613 84.6024 38.1622 84.8514 38.3622 85.0607C38.4381 85.1403 38.4418 85.2986 38.4585 85.4237C38.4807 85.5866 38.4779 85.7533 38.4955 85.9172C38.5048 86.007 38.5039 86.1338 38.5594 86.1774C38.8724 86.4209 38.777 86.7737 38.8307 87.0866C38.8455 87.1746 38.8548 87.307 38.9113 87.3385C39.177 87.4866 39.1335 87.7357 39.1474 87.9662C39.1641 88.2422 39.1881 88.5088 39.3696 88.744C39.44 88.8357 39.4557 88.9801 39.4715 89.1033C39.4974 89.3033 39.5141 89.5051 39.5141 89.7061C39.5141 89.9635 39.7326 90.1199 39.7909 90.3487C39.8483 90.5746 39.815 90.8292 40.0289 91.0403C40.1187 90.9625 40.1992 90.8616 40.3029 90.8107C40.4789 90.7237 40.5178 90.5644 40.5502 90.407C40.5826 90.2468 40.5715 90.0774 40.5965 89.9153C40.6159 89.7912 40.6224 89.6246 40.702 89.5579C40.9196 89.3755 40.8992 89.1403 40.9224 88.907C40.9418 88.7107 40.9261 88.5098 41.1159 88.3598C41.1881 88.3033 41.2131 88.1681 41.2279 88.0635C41.2548 87.8829 41.2622 87.6987 41.2678 87.5153C41.2761 87.2385 41.2937 86.9681 41.4928 86.744C41.6261 86.5931 41.5863 86.3968 41.5983 86.2172C41.615 85.982 41.59 85.7533 41.8233 85.5755C41.9131 85.507 41.9187 85.3079 41.9344 85.1653C41.9604 84.932 41.9363 84.6986 42.1576 84.519C42.2381 84.4533 42.2594 84.2829 42.2604 84.1598C42.2622 83.7931 42.5122 83.5561 42.7289 83.3375C42.9178 83.1459 43.1057 82.8894 43.4307 82.8801C43.9835 82.4524 44.6196 82.6505 45.227 82.6496C45.3298 82.6496 45.4418 82.7024 45.5335 82.757C45.8585 82.9514 46.1789 83.1533 46.4946 83.3616C46.5668 83.4088 46.6279 83.4857 46.6715 83.5616C46.7613 83.7153 46.7816 83.9051 46.9529 84.0199C47.0113 84.0588 47.0252 84.182 47.0354 84.269C47.0576 84.469 47.0622 84.6709 47.0798 84.8718C47.0946 85.0357 47.1076 85.2005 47.2446 85.3236C47.365 85.432 47.3622 85.5866 47.3678 85.7329C47.3798 86.0625 47.3844 86.3931 47.402 86.7218C47.4298 87.2533 47.4335 87.2533 47.9418 87.6422C48.0761 87.5246 48.0854 87.3616 48.1168 87.2014C48.1511 87.0255 48.1659 86.8422 48.3372 86.7172C48.4002 86.6709 48.4178 86.5607 48.4502 86.4764C48.5094 86.3246 48.5363 86.1579 48.6863 86.0533C48.7279 86.0246 48.7733 85.9644 48.7733 85.919C48.7715 85.5968 49.027 85.4218 49.165 85.1792C49.2668 85.0005 49.5492 85.0042 49.5428 84.7514C49.802 84.7079 49.8298 84.407 50.0474 84.3024C50.1603 84.2477 50.2196 84.0903 50.3224 84.0005C50.415 83.9199 50.5326 83.8681 50.64 83.8061C50.7335 83.7514 50.8233 83.6811 50.9242 83.6496C51.0539 83.6098 51.1465 83.5514 51.2215 83.432C51.2613 83.369 51.3678 83.3375 51.4511 83.3125C51.627 83.2607 51.8141 83.2385 51.9122 83.0514C51.9196 83.0366 51.9391 83.0181 51.9529 83.0181C52.4187 83.0107 52.7585 82.6338 53.2344 82.6135C54.2798 82.569 55.3233 82.5561 56.3668 82.6116C56.602 82.6246 56.827 82.6505 57.0363 82.8079C57.1705 82.9088 57.377 82.9209 57.5539 82.9561C57.7344 82.9922 57.877 83.0718 58.0353 83.1764C58.3002 83.3514 58.5298 83.607 58.8678 83.6607C59.0992 83.6977 59.1131 84.0329 59.3742 84.0301C59.4103 84.2857 59.7029 84.2848 59.8178 84.4801C59.9131 84.6431 60.0983 84.7486 60.2159 84.9135C60.3381 85.0848 60.5187 85.2125 60.6511 85.3783C60.7279 85.4737 60.7687 85.6024 60.8094 85.7218C60.8705 85.8996 61.0141 85.9727 61.1705 86.0311C61.3316 86.0912 61.4715 86.0088 61.4826 85.8338C61.5002 85.5412 61.4992 85.2477 61.5066 84.9551C61.5122 84.7357 61.5094 84.5144 61.5252 84.2959C61.5326 84.1903 61.5437 84.0579 61.6085 83.9894C61.8205 83.7662 61.8242 83.494 61.8381 83.2199C61.852 82.9477 61.8372 82.6755 62.0641 82.4542C62.1418 82.3774 62.1492 82.2172 62.1659 82.0912C62.1965 81.8736 62.19 81.6468 62.4187 81.5162C62.4446 81.5014 62.4687 81.4514 62.465 81.4209C62.4252 81.0662 62.7289 80.8931 62.8826 80.6449C63.0344 80.3996 63.2242 80.1727 63.4187 79.9579C63.5983 79.7598 63.7678 79.5486 64.039 79.4449C64.1631 79.3977 64.2418 79.2412 64.3622 79.1736C64.6196 79.0311 64.8057 78.7431 65.152 78.7746C65.1789 78.7774 65.2205 78.7422 65.2372 78.7144C65.3446 78.5301 65.5233 78.5042 65.7103 78.4912C65.9316 78.4764 66.1409 78.4524 66.2974 78.2505C66.3502 78.1829 66.4928 78.1709 66.5965 78.1598C66.8844 78.1301 67.1687 78.1477 67.4085 77.9088C67.502 77.8153 67.7196 77.8292 67.8816 77.8246C68.6696 77.8033 69.4576 77.7986 70.2455 77.7773C70.7585 77.7635 71.2705 77.7329 71.7826 77.7042C71.8909 77.6977 72.0039 77.6829 72.1048 77.644C72.5363 77.4783 72.9585 77.494 73.3881 77.6579C73.6085 77.7422 73.8418 77.7922 74.077 77.8607C74.2437 78.3681 74.2316 78.8681 74.065 79.3783C73.8279 79.4986 73.5677 79.4866 73.315 79.4922C72.8752 79.5024 72.4353 79.4894 71.9955 79.4986C71.5011 79.5088 71.0066 79.532 70.5122 79.5533C70.4215 79.557 70.3187 79.5524 70.2418 79.5912C69.8483 79.794 69.4205 79.7468 69.0039 79.7774C68.7659 79.7949 68.5279 79.7996 68.29 79.8098C68.1798 79.8144 68.0705 79.8227 67.9603 79.8246C67.6761 79.8301 67.4474 79.9662 67.2011 80.0949C66.9705 80.2153 66.652 80.1181 66.4455 80.3616C66.3909 80.4255 66.2853 80.4857 66.2057 80.482C65.8381 80.4662 65.6372 80.782 65.3372 80.8949C65.2631 81.1496 64.9168 81.1598 64.8594 81.4292C64.6603 81.5246 64.577 81.7385 64.4233 81.8662C64.2965 81.9727 64.2307 82.0727 64.215 82.2218C64.1955 82.4051 64.1881 82.5987 64.0622 82.7403C63.7844 83.0505 63.8696 83.4301 63.8465 83.7866C63.8372 83.9338 64.0872 84.0524 64.1696 83.9375C64.3372 83.7042 64.5835 83.6607 64.8196 83.5755C64.9779 83.2144 65.4474 83.319 65.6548 83.019C65.6937 82.9625 65.8242 82.9699 65.9122 82.9477C66.0187 82.9209 66.1603 82.9274 66.2233 82.8598C66.4548 82.6153 66.752 82.6366 67.039 82.6162C68.0094 82.5468 68.9807 82.5524 69.9511 82.6162C70.0965 82.6255 70.2603 82.6162 70.3826 82.6783C70.6789 82.8311 70.9779 82.9542 71.3122 82.9811C71.5344 83.2607 71.9326 83.244 72.1761 83.5144C72.3381 83.6949 72.6455 83.7088 72.8011 83.9329C73.1113 83.9144 73.0909 84.3477 73.3816 84.357C73.4557 84.5227 73.6039 84.6172 73.7215 84.7394C73.8353 84.8588 73.9215 85.0255 74.0455 85.1579C74.1029 85.219 74.1205 85.3227 74.1418 85.4107C74.1677 85.5209 74.1946 85.6274 74.3057 85.6801C74.4205 85.7357 74.4428 85.8403 74.4705 85.9486C74.5113 86.1088 74.564 86.2588 74.7048 86.3718C74.7659 86.4209 74.7853 86.5264 74.8122 86.6107C74.8511 86.732 74.8798 86.8561 74.9113 86.9727C75.0974 87.082 75.2696 87.0746 75.4418 86.9875C75.5659 86.8024 75.5335 86.5959 75.5335 86.3977C75.5335 85.6098 75.5252 84.8209 75.5335 84.0329C75.5363 83.7246 75.5742 83.4162 75.5965 83.1079C76.1261 82.7912 76.6289 82.8366 77.1585 83.0468C77.264 83.4246 77.3076 83.8033 77.3085 84.1885C77.3131 86.2783 77.3196 88.3681 77.3261 90.4579C77.3261 90.7301 77.29 91.0042 77.4678 91.2533C77.5242 91.332 77.5113 91.4653 77.5196 91.5737C77.5381 91.8292 77.5474 92.0857 77.565 92.3422C77.5807 92.5764 77.5576 92.8237 77.789 92.9866C77.827 93.0135 77.8307 93.0857 77.8566 93.1329C77.9427 93.2838 77.8798 93.5079 78.1002 93.595C78.2705 93.6625 78.2853 93.882 78.4816 93.9662C78.6585 94.0422 78.7742 94.2505 78.9437 94.3838C79.1465 94.544 79.3455 94.619 79.5835 94.6412C79.8566 94.6672 80.1196 94.7005 80.3798 94.819C80.6677 94.9496 81.0094 94.9514 81.2937 94.8292C81.6085 94.6931 81.9252 94.657 82.2539 94.6375C82.4927 94.6237 82.727 94.6079 82.914 94.4199C82.9742 94.3598 83.0742 94.3311 83.1613 94.3088C83.3057 94.2718 83.4409 94.2394 83.5279 94.0959C83.5613 94.0412 83.6446 93.9885 83.7076 93.9866C84.0992 93.9746 84.3548 93.6737 84.689 93.5412C84.7353 93.5227 84.7909 93.4801 84.8039 93.4366C84.8548 93.2737 85.0113 93.2468 85.1576 93.1616C85.164 92.9292 85.177 92.6931 85.177 92.457C85.1789 89.7255 85.1779 86.994 85.1779 84.2625C85.1779 84.1162 85.1946 83.9672 85.177 83.8227C85.1326 83.4616 85.4603 83.2922 85.5807 83.0172C85.5964 82.9811 85.6742 82.969 85.7261 82.9514C86.0316 82.8477 86.3363 82.869 86.6464 82.9431C86.8696 82.9968 86.8955 83.2459 87.0844 83.3375C87.1483 83.3681 87.1622 83.5301 87.1724 83.6357C87.1872 83.7811 87.1789 83.9283 87.1789 84.0755C87.1789 87.7783 87.1789 91.4811 87.1789 95.1838C87.1789 95.257 87.1696 95.332 87.1798 95.4033C87.2427 95.8218 86.9816 96.0663 86.702 96.3005C86.6751 96.3227 86.6307 96.3264 86.6066 96.3505C86.5316 96.4255 86.4742 96.5505 86.3881 96.5755C86.2539 96.6144 86.1001 96.5857 85.9548 96.5857C85.8214 96.494 85.7992 96.3033 85.6066 96.2561C85.4529 96.219 85.502 95.9431 85.2872 95.9162C85.2363 95.9098 85.1974 95.8135 85.1511 95.7598C85.039 95.632 84.9205 95.5885 84.8316 95.6801C84.6687 95.8487 84.4789 95.9348 84.252 95.9561C84.2344 95.9579 84.2085 95.9598 84.2011 95.9718C83.9955 96.3051 83.6335 96.2394 83.3289 96.3283C83.2001 96.3653 83.0983 96.4912 82.9724 96.5848C81.652 96.6801 80.315 96.6801 78.9779 96.607C78.8279 96.5987 78.6909 96.594 78.6307 96.4107C78.5909 96.2875 78.4585 96.2968 78.352 96.2783C78.1927 96.2505 78.0076 96.2644 77.965 96.0431C77.7529 95.9468 77.5835 95.7894 77.3965 95.6551C77.052 95.407 76.715 95.1635 76.5335 94.7625C76.2872 94.6264 76.2548 94.3144 76.0261 94.1514C75.9455 94.094 75.9307 93.9255 75.9131 93.8042C75.8798 93.57 75.8835 93.3348 75.6668 93.1607C75.6011 93.1079 75.6029 92.9598 75.59 92.8524C75.5677 92.6709 75.5631 92.4866 75.539 92.3061C75.5252 92.2042 75.3659 92.132 75.2752 92.1857C75.0853 92.2987 74.915 92.4366 74.8372 92.6542C74.7733 92.8338 74.8363 93.0468 74.6363 93.1931C74.5002 93.2931 74.4122 93.4579 74.3048 93.5959C74.2603 93.6524 74.202 93.7079 74.1853 93.7727C74.09 94.1366 73.8298 94.3681 73.5557 94.5931C73.4205 94.7042 73.39 94.9227 73.1807 94.9598C72.9779 95.3098 72.6177 95.445 72.2853 95.6181C72.2233 95.6505 72.1418 95.6811 72.1113 95.7357C72.0279 95.8838 71.8937 95.9209 71.7474 95.9487C71.6937 95.9588 71.614 95.9635 71.5937 95.9977C71.4307 96.2801 71.1474 96.2746 70.8816 96.3162C70.8483 96.3218 70.8002 96.3412 70.789 96.3672C70.664 96.6487 70.4085 96.5968 70.1789 96.6107C68.9881 96.682 67.7974 96.6681 66.6066 96.6098C66.3733 96.5987 66.1363 96.6264 65.9678 96.382C65.9122 96.3014 65.7409 96.2875 65.6196 96.2709C65.4678 96.2496 65.3307 96.2246 65.2613 96.0653C65.2474 96.0348 65.2141 95.9912 65.189 95.9903C64.8696 95.9801 64.6705 95.7385 64.4326 95.5848C64.1363 95.3931 63.8085 95.2005 63.6233 94.9042C63.4844 94.682 63.2215 94.5829 63.1418 94.3274C62.8946 94.257 62.8826 93.9348 62.64 93.857C62.6094 93.8477 62.5668 93.8088 62.5668 93.7838C62.5687 93.3459 62.0659 93.107 62.1409 92.6561C61.977 92.5181 61.827 92.3931 61.6853 92.2746C61.4872 92.2857 61.4992 92.4431 61.4705 92.557C61.4344 92.6996 61.4326 92.8496 61.2446 92.8931C61.2048 92.9024 61.1594 92.9662 61.1474 93.0125C61.0529 93.3959 60.7872 93.6653 60.5446 93.9533C60.4761 94.0348 60.4492 94.1496 60.39 94.2403C60.3316 94.3301 60.2724 94.4348 60.1853 94.4885C59.9029 94.6625 59.69 94.9116 59.4576 95.1385C59.1678 95.42 58.6011 95.7866 58.2187 95.9607C58.0816 96.0227 57.989 96.1801 57.852 96.2431C57.7252 96.3014 57.5659 96.2922 57.4215 96.3144C57.4057 96.3172 57.3853 96.3311 57.3779 96.3459C57.2159 96.6487 56.9242 96.5968 56.6566 96.6107C56.1807 96.6357 55.7057 96.6681 55.2289 96.682C54.9548 96.6903 54.6798 96.669 54.4057 96.6588C53.8205 96.6375 53.2353 96.6144 52.6659 96.5922C52.4465 96.3292 52.4474 96.32 52.1724 96.2801C52.0224 96.2588 51.9002 96.2283 51.7872 96.1088C51.7076 96.0237 51.5724 95.9718 51.4539 95.9459C51.3196 95.9163 51.2141 95.8783 51.1511 95.7468C51.1298 95.7033 51.0724 95.6468 51.0326 95.6477C50.7057 95.6524 50.5613 95.3348 50.2881 95.2357C50.1298 95.1783 50.1261 94.9107 49.9141 94.8764C49.8779 94.6311 49.5798 94.6042 49.5076 94.3959C49.4381 94.195 49.1502 94.2116 49.1168 93.969C49.1039 93.8774 48.9687 93.8468 48.8853 93.8875C48.8141 93.9227 48.7511 94.0024 48.7187 94.0774C48.6928 94.1375 48.7168 94.2209 48.7196 94.2931C48.7344 94.6412 48.7539 94.9885 48.7641 95.3366C48.7724 95.6116 48.7724 95.8866 48.6566 96.1709C48.5279 96.2375 48.3798 96.3051 48.2409 96.3894C48.1502 96.444 48.0816 96.5579 47.9872 96.5811C47.8502 96.6144 47.6983 96.5894 47.5585 96.5894C47.4354 96.4385 47.3816 96.2394 47.1557 96.2357C47.0483 96.0033 47.0918 95.7172 46.852 95.5431C46.7863 95.4949 46.7844 95.3412 46.7779 95.2348C46.7613 94.9792 46.7705 94.7209 46.7483 94.4662C46.7344 94.3051 46.7316 94.1042 46.6372 93.9968C46.4316 93.7607 46.44 93.4968 46.4316 93.2246C46.4196 92.8033 46.4103 92.382 46.3946 91.9607C46.3881 91.7774 46.3779 91.5922 46.252 91.4403C46.1252 91.2875 46.1252 91.1033 46.1168 90.919C46.1002 90.5348 46.0816 90.1505 46.0641 89.7653C46.0529 89.5255 46.0168 89.2996 45.8761 89.0875C45.8011 88.9737 45.7779 88.8144 45.7668 88.6727C45.7418 88.3625 45.74 88.0505 45.7252 87.7394C45.715 87.519 45.7048 87.2866 45.5548 87.1153C45.4326 86.9764 45.4131 86.8246 45.4048 86.6607C45.3872 86.3311 45.3715 86.0014 45.3576 85.6718C45.3455 85.3922 45.3113 85.1264 45.077 84.9255C45.0141 84.8718 44.9983 84.7635 44.9455 84.6459C44.7641 84.6348 44.5668 84.6237 44.3622 84.6107C44.2344 84.7403 44.1205 84.8579 44.0048 84.9755C43.9891 85.1135 43.9696 85.2394 43.9622 85.3662C43.9539 85.4977 43.9363 85.6218 43.8289 85.7135C43.6752 85.8449 43.6539 86.0283 43.64 86.2125C43.6159 86.5403 43.5937 86.8561 43.3826 87.1449C43.2863 87.2764 43.3085 87.4968 43.2826 87.6774C43.2418 87.9644 43.215 88.2422 43.0483 88.5098C42.9326 88.6959 42.9446 88.9672 42.915 89.2014C42.8854 89.4329 42.9122 89.6653 42.6798 89.8412C42.5918 89.9079 42.5909 90.1088 42.5761 90.2505C42.5511 90.4848 42.5465 90.7051 42.3566 90.9005C42.2604 91.0005 42.265 91.207 42.2437 91.3681C42.2131 91.6033 42.2113 91.8348 42.0483 92.0403C41.965 92.145 41.9428 92.3107 41.9252 92.4524C41.8974 92.6699 41.8992 92.8912 41.8844 93.1107C41.8724 93.2912 41.8548 93.4496 41.7039 93.6042C41.5955 93.7153 41.5854 93.9375 41.5613 94.1144C41.5307 94.3283 41.5789 94.5653 41.3335 94.6922C41.2955 94.869 41.2141 95.0496 41.2289 95.2218C41.2641 95.6292 41.0113 95.907 40.8168 96.2005C40.7279 96.3348 40.4872 96.3561 40.4872 96.5931L40.4881 96.5968ZM54.9187 84.5755C54.3502 84.594 53.8372 84.6051 53.3252 84.6301C53.1853 84.6366 53.0131 84.6172 52.9344 84.7746C52.865 84.9144 52.7529 84.9394 52.6215 84.9514C52.4353 84.969 52.2557 85.0014 52.1826 85.2116C51.9168 85.2607 51.7955 85.5153 51.5742 85.6366C51.2363 85.8227 50.9557 86.0848 50.7881 86.4468C50.7585 86.5107 50.7215 86.5829 50.6668 86.6209C50.5548 86.6987 50.4872 86.7875 50.4678 86.9283C50.4566 87.0135 50.4113 87.1051 50.3548 87.1718C50.2224 87.3292 50.1242 87.4922 50.1011 87.7033C50.0918 87.7866 50.0326 87.8801 49.9687 87.9385C49.8159 88.0792 49.7992 88.2579 49.7983 88.4422C49.7928 89.1561 49.7853 89.8699 49.7918 90.5848C49.7946 90.9264 49.7502 91.2922 50.0807 91.5394C50.0937 91.5496 50.1057 91.5699 50.1057 91.5866C50.115 91.8774 50.2539 92.1024 50.4576 92.2959C50.4603 92.5635 50.7465 92.682 50.7965 92.9024C50.8585 93.1727 51.1603 93.1977 51.2409 93.4264C51.5131 93.5653 51.6622 93.8681 51.9853 93.9551C52.1242 93.9922 52.2196 94.169 52.3566 94.2412C52.4983 94.3162 52.6668 94.3403 52.8224 94.3894C52.8381 94.394 52.8539 94.4107 52.8613 94.4264C52.9603 94.632 53.1594 94.6135 53.3372 94.6338C53.6807 94.6727 54.015 94.7116 54.352 94.8311C54.7289 94.9644 55.1631 94.9616 55.54 94.8125C55.8224 94.7005 56.102 94.6746 56.3891 94.632C56.5678 94.6061 56.7529 94.5746 56.9141 94.4996C57.09 94.4181 57.2807 94.3144 57.3946 94.1653C57.5492 93.9635 57.7668 93.9533 57.9641 93.8737C57.9955 93.8607 58.0381 93.8338 58.0455 93.8061C58.1122 93.5588 58.4603 93.5718 58.502 93.3061C58.7131 93.2616 58.7103 92.9903 58.8428 92.932C59.0474 92.8431 59.0428 92.632 59.1826 92.5274C59.3585 92.3959 59.4224 92.2125 59.4659 92.0116C59.477 91.9598 59.5011 91.8987 59.54 91.8681C59.7687 91.6866 59.765 91.4237 59.8057 91.1718C59.8437 90.9394 59.8724 90.6996 59.9502 90.4792C60.1335 89.9579 60.1261 89.4246 59.9909 88.9135C59.9113 88.6135 59.8326 88.3172 59.7909 88.0098C59.7594 87.7727 59.6937 87.5672 59.5428 87.3607C59.4196 87.1922 59.2761 87.0199 59.1872 86.832C58.9937 86.4218 58.7011 86.0875 58.3891 85.782C58.1705 85.5681 57.9557 85.2949 57.5955 85.269C57.5353 85.2644 57.4557 85.2088 57.4279 85.1542C57.3622 85.0255 57.2678 84.9755 57.1307 84.9459C57.0113 84.9199 56.8789 84.8699 56.7928 84.7875C56.6594 84.6607 56.5103 84.6301 56.3428 84.6236C55.8483 84.6061 55.3548 84.5894 54.9159 84.5746L54.9187 84.5755ZM68.5446 84.5727C68.014 84.5903 67.502 84.6051 66.989 84.6283C66.8826 84.6329 66.7298 84.6357 66.6807 84.7014C66.5307 84.9014 66.3289 84.9459 66.1094 84.9811C66.0603 84.9885 65.9881 85.0237 65.9761 85.0616C65.915 85.2505 65.7335 85.2607 65.6002 85.3468C65.465 85.4338 65.3492 85.5514 65.2289 85.6598C64.9511 85.9107 64.5928 86.0903 64.4955 86.5024C64.4807 86.5644 64.4057 86.6116 64.3594 86.6662C64.314 86.7199 64.2381 86.7718 64.2316 86.8311C64.19 87.2338 63.7752 87.4996 63.8326 87.9385C63.8381 87.9811 63.7937 88.0449 63.7548 88.0774C63.5613 88.2338 63.5372 88.4533 63.5335 88.6736C63.5224 89.369 63.514 90.0653 63.5168 90.7607C63.5178 91.0348 63.5603 91.2912 63.765 91.5218C63.8715 91.6422 63.8539 91.8672 63.9113 92.0385C63.9742 92.2227 64.2261 92.2894 64.2178 92.5301C64.215 92.6153 64.2576 92.7107 64.3039 92.7857C64.3678 92.8894 64.54 92.894 64.5557 93.0524C64.5696 93.1866 64.6965 93.1977 64.7798 93.2616C64.8733 93.3338 64.9168 93.5218 65.0057 93.5385C65.2252 93.5801 65.2178 93.8459 65.4029 93.8866C65.7335 93.9607 65.9215 94.2903 66.2566 94.3514C66.4724 94.6385 66.7946 94.6218 67.1029 94.6542C67.2659 94.6709 67.4372 94.6792 67.5853 94.7394C68.1196 94.957 68.6455 94.9616 69.1789 94.7412C69.2946 94.6931 69.4261 94.6792 69.5529 94.6635C69.7159 94.6431 69.8816 94.6403 70.0455 94.6209C70.189 94.6042 70.339 94.5959 70.4215 94.4385C70.4446 94.3949 70.4955 94.3542 70.5427 94.3366C70.6631 94.2922 70.8002 94.2838 70.9076 94.2209C71.027 94.1514 71.1085 93.9885 71.2307 93.957C71.4492 93.9005 71.514 93.6672 71.7085 93.607C71.9585 93.5292 72.0955 93.3468 72.1927 93.12C72.214 93.0709 72.2381 92.9949 72.2752 92.9848C72.4881 92.9264 72.4446 92.632 72.6039 92.5875C72.8603 92.5172 72.7872 92.244 72.9566 92.1301C73.1029 92.0311 73.14 91.8616 73.1539 91.694C73.1733 91.4551 73.2029 91.2311 73.377 91.0348C73.4511 90.9514 73.4613 90.7931 73.4622 90.669C73.4705 90.0644 73.4715 89.4607 73.464 88.8561C73.4622 88.732 73.4502 88.5755 73.377 88.4912C73.19 88.2764 73.1863 88.0255 73.1566 87.7718C73.1427 87.6496 73.1224 87.4894 73.0418 87.4236C72.9159 87.3209 72.8576 87.2125 72.8326 87.0616C72.8057 86.9014 72.7353 86.7857 72.5955 86.6635C72.4483 86.5348 72.3335 86.3348 72.214 86.1625C72.09 85.9829 72.0057 85.7848 71.8085 85.6625C71.627 85.5496 71.4733 85.3718 71.2789 85.3061C71.1066 85.2477 71.1122 85.0616 70.9807 85.0135C70.8279 84.9579 70.6622 84.9403 70.5039 84.8987C70.4742 84.8912 70.4437 84.8533 70.4298 84.8218C70.3585 84.657 70.2113 84.6394 70.064 84.6329C69.552 84.6098 69.039 84.5922 68.5437 84.5727H68.5446Z" fill="url(#paint5_linear_2540_703)"/>
<path d="M108.394 86.9773C108 87.069 107.654 87.0514 107.308 87.0357C107.06 87.0246 106.904 86.8968 106.803 86.6764C106.683 86.4144 106.209 85.7746 105.956 85.6681C105.757 85.5838 105.734 85.3283 105.5 85.307C105.309 85.2894 105.187 85.1329 105.045 85.019C104.981 84.9681 104.872 84.9773 104.786 84.9486C104.684 84.9144 104.55 84.8959 104.492 84.8218C104.345 84.6357 104.15 84.6209 103.95 84.6209C102.98 84.619 102.009 84.6209 101.038 84.6273C100.836 84.6283 100.644 84.6459 100.515 84.8579C100.473 84.9264 100.322 84.9357 100.219 84.9588C100.075 84.9903 99.9225 85.0014 99.8734 85.1783C99.6086 85.2875 99.478 85.5783 99.1966 85.6718C99.0595 85.7172 98.9447 85.8079 98.8753 85.9523C98.7651 86.1801 98.5095 86.3172 98.4688 86.5912C98.2938 86.6931 98.2021 86.8671 98.0771 87.0125C97.9373 87.1746 97.8605 87.3394 97.8077 87.532C97.7688 87.6718 97.7586 87.8375 97.6743 87.944C97.5123 88.1477 97.4771 88.3736 97.4753 88.6125C97.4697 89.2718 97.4697 89.932 97.4734 90.5912C97.4753 90.8486 97.4919 91.1023 97.679 91.3134C97.7364 91.3773 97.7595 91.4773 97.7836 91.5644C97.9382 92.1125 97.9484 92.1023 98.3993 92.5884C98.5929 92.7968 98.7373 93.0542 98.8808 93.3023C98.9493 93.4209 99.0327 93.4903 99.1475 93.557C99.2873 93.6366 99.404 93.7588 99.5318 93.8616C99.654 93.9597 99.8586 93.9264 99.9243 94.132C99.9438 94.1922 100.072 94.2236 100.154 94.257C100.255 94.2986 100.402 94.2977 100.457 94.3709C100.666 94.6477 100.964 94.6172 101.25 94.6523C101.43 94.6746 101.618 94.6959 101.783 94.7644C102.283 94.9727 102.798 94.9347 103.293 94.8153C103.595 94.7422 103.89 94.657 104.201 94.6366C104.419 94.6227 104.648 94.6292 104.771 94.3884C104.785 94.3616 104.828 94.3477 104.86 94.332C105.567 94.0005 105.994 93.6551 106.503 93.0116C106.6 92.8884 106.756 92.832 106.824 92.6588C106.877 92.5246 107.044 92.4347 107.159 92.3255C107.172 92.3134 107.177 92.2912 107.192 92.2829C107.359 92.1838 108.122 92.2172 108.262 92.3394C108.33 92.3977 108.403 92.4746 108.423 92.556C108.474 92.7662 108.522 92.9838 108.524 93.1986C108.526 93.4162 108.473 93.6338 108.441 93.8514C108.42 93.9986 108.36 94.1014 108.228 94.206C107.948 94.4292 107.687 94.6847 107.464 94.9625C107.348 95.107 107.224 95.2144 107.085 95.3292C106.926 95.4607 106.768 95.5542 106.575 95.6264C106.437 95.6773 106.345 95.8384 106.21 95.9153C106.088 95.9857 105.875 95.9672 105.814 96.0597C105.679 96.2672 105.492 96.2681 105.298 96.3005C105.229 96.3125 105.122 96.3301 105.103 96.3755C104.989 96.6394 104.762 96.6042 104.547 96.6134C103.961 96.6403 103.375 96.6746 102.79 96.6949C102.572 96.7023 102.351 96.6773 102.132 96.6681C101.619 96.6477 101.106 96.632 100.594 96.607C100.488 96.6014 100.323 96.5922 100.291 96.5301C100.163 96.2829 99.9401 96.3023 99.728 96.2662C99.6632 96.2551 99.578 96.2181 99.5493 96.1662C99.479 96.0375 99.3697 95.9912 99.2419 95.9607C99.0855 95.9227 98.903 95.9292 98.8493 95.719C98.8419 95.6912 98.7975 95.6597 98.766 95.6551C98.2401 95.5718 97.9855 95.1162 97.6151 94.8199C97.5169 94.5727 97.1892 94.5273 97.1216 94.2551C96.9206 94.1579 96.8567 93.9699 96.7864 93.7773C96.7077 93.5597 96.4586 93.4505 96.404 93.2125C96.1993 93.1625 96.1567 92.9903 96.1567 92.8273C96.1567 92.6014 95.978 92.5301 95.8466 92.4097C95.8327 92.2431 95.8206 92.0792 95.8058 91.9153C95.7892 91.7329 95.7605 91.5625 95.6419 91.4023C95.5614 91.294 95.516 91.1338 95.5142 90.9959C95.504 90.0801 95.5068 89.1644 95.5123 88.2477C95.5123 88.1412 95.5216 88.006 95.5845 87.9338C95.8086 87.6727 95.804 87.3625 95.8206 87.0533C95.829 86.9023 95.8466 86.7727 96.0169 86.6996C96.079 86.6727 96.1197 86.5579 96.1382 86.4755C96.178 86.2949 96.1966 86.1088 96.4068 86.0347C96.4688 85.781 96.6808 85.6218 96.8068 85.407C96.9429 85.1755 97.0651 84.9134 97.2623 84.7459C97.4114 84.619 97.5206 84.4357 97.6827 84.356C97.8966 84.2505 97.9151 83.9172 98.2123 83.9375C98.3827 83.8023 98.5429 83.6607 98.766 83.5959C98.9271 83.5496 98.9827 83.3209 99.1975 83.3005C99.3568 83.2857 99.5142 83.2088 99.591 83.0366C99.6021 83.0116 99.653 82.9922 99.6864 82.9903C100.006 82.9755 100.283 82.8542 100.554 82.6912C100.655 82.6301 100.802 82.6366 100.929 82.6273C101.972 82.5514 103.017 82.5579 104.06 82.6125C104.312 82.6255 104.571 82.6162 104.77 82.8366C104.833 82.906 104.97 82.9181 105.076 82.9366C105.327 82.9801 105.59 82.9866 105.753 83.2347C105.778 83.2718 105.85 83.2792 105.902 83.2968C106.006 83.3329 106.122 83.3477 106.21 83.4051C106.404 83.5283 106.585 83.6718 106.77 83.8088C106.827 83.8514 106.88 83.9357 106.935 83.9366C107.235 83.9403 107.37 84.1644 107.533 84.3533C107.817 84.681 108.144 84.9847 108.366 85.3505C108.529 85.6199 108.597 85.9681 108.543 86.3042C108.509 86.5199 108.449 86.732 108.393 86.981L108.394 86.9773Z" fill="url(#paint6_linear_2540_703)"/>
<path d="M89.728 89.3792C89.4696 88.8051 89.5817 88.3098 89.703 87.7746C90.7789 87.6477 91.8502 87.7088 92.8965 87.7338C93.0428 87.8987 93.1613 88.0329 93.3428 88.2375C93.3465 88.3746 93.3668 88.6107 93.3548 88.844C93.3363 89.194 93.1743 89.3672 92.8261 89.4348C92.7011 89.4588 92.5733 89.4792 92.4465 89.4792C91.753 89.4801 91.0594 89.482 90.3668 89.4672C90.152 89.4625 89.9372 89.4088 89.728 89.3783V89.3792Z" fill="url(#paint7_linear_2540_703)"/>
</g>
<defs>
<filter id="filter0_d_2540_703" x="7" y="16.2792" width="126" height="126" filterUnits="userSpaceOnUse" color-interpolation-filters="sRGB">
<feFlood flood-opacity="0" result="BackgroundImageFix"/>
<feColorMatrix in="SourceAlpha" type="matrix" values="0 0 0 0 0 0 0 0 0 0 0 0 0 0 0 0 0 0 127 0" result="hardAlpha"/>
<feOffset dy="9"/>
<feGaussianBlur stdDeviation="6.5"/>
<feColorMatrix type="matrix" values="0 0 0 0 0.184722 0 0 0 0 0.758794 0 0 0 0 1 0 0 0 0.51 0"/>
<feBlend mode="normal" in2="BackgroundImageFix" result="effect1_dropShadow_2540_703"/>
<feBlend mode="normal" in="SourceGraphic" in2="effect1_dropShadow_2540_703" result="shape"/>
</filter>
<linearGradient id="paint0_linear_2540_703" x1="140" y1="18.1002" x2="-3.96858e-07" y2="122.458" gradientUnits="userSpaceOnUse">
<stop stop-color="#2FC1FF"/>
<stop offset="1" stop-color="#0379D7"/>
</linearGradient>
<linearGradient id="paint1_linear_2540_703" x1="102.509" y1="47.8866" x2="71.9067" y2="70.6977" gradientUnits="userSpaceOnUse">
<stop stop-color="#2FC1FF"/>
<stop offset="1" stop-color="#0379D7"/>
</linearGradient>
<linearGradient id="paint2_linear_2540_703" x1="89.927" y1="53.7115" x2="77.2396" y2="60.1035" gradientUnits="userSpaceOnUse">
<stop stop-color="#2FC1FF"/>
<stop offset="1" stop-color="#0379D7"/>
</linearGradient>
<linearGradient id="paint3_linear_2540_703" x1="108.629" y1="55.2153" x2="102.715" y2="57.3291" gradientUnits="userSpaceOnUse">
<stop stop-color="#2FC1FF"/>
<stop offset="1" stop-color="#0379D7"/>
</linearGradient>
<linearGradient id="paint4_linear_2540_703" x1="102.593" y1="47.8313" x2="74.1482" y2="96.0855" gradientUnits="userSpaceOnUse">
<stop stop-color="#2FC1FF"/>
<stop offset="1" stop-color="#0379D7"/>
</linearGradient>
<linearGradient id="paint5_linear_2540_703" x1="87.1893" y1="79.9656" x2="72.0018" y2="112.952" gradientUnits="userSpaceOnUse">
<stop stop-color="#2FC1FF"/>
<stop offset="1" stop-color="#0379D7"/>
</linearGradient>
<linearGradient id="paint6_linear_2540_703" x1="108.561" y1="84.369" x2="94.7892" y2="93.8558" gradientUnits="userSpaceOnUse">
<stop stop-color="#2FC1FF"/>
<stop offset="1" stop-color="#0379D7"/>
</linearGradient>
<linearGradient id="paint7_linear_2540_703" x1="93.3586" y1="87.924" x2="91.6789" y2="90.5838" gradientUnits="userSpaceOnUse">
<stop stop-color="#2FC1FF"/>
<stop offset="1" stop-color="#0379D7"/>
</linearGradient>
</defs>
</svg>
